<?xml version="1.0" encoding="utf-8"?>
<!-- Generator: Adobe Illustrator 16.0.0, SVG Export Plug-In . SVG Version: 6.00 Build 0)  -->
<!DOCTYPE svg PUBLIC "-//W3C//DTD SVG 1.1//EN" "http://www.w3.org/Graphics/SVG/1.1/DTD/svg11.dtd">
<svg version="1.1" id="design" xmlns="http://www.w3.org/2000/svg" xmlns:xlink="http://www.w3.org/1999/xlink" x="0px" y="0px"
	 width="325px" height="212px" viewBox="-144 -50.5 325 212" enable-background="new -144 -50.5 325 212" xml:space="preserve">
<g>
	<g>
		<path fill="#FFFFFF" d="M19.651,142.807c-0.063,0-0.127,0-0.194-0.01c-7.832-0.916-47.045-5.977-49.785-16.092
			c-0.654-2.403,0.494-4.734,3.406-6.93c9.91-7.456,32.622-8.889,54.592-10.276c17.053-1.08,33.172-2.105,42.233-5.743
			c4.227-1.696,4.245-2.774,4.245-2.783c-0.073-2.522-13.398-6.977-23.131-10.225c-11.074-3.699-23.629-7.9-33.227-13.169
			c-7.111-3.911-10.227-7.974-9.26-12.074c3.687-15.624,69.595-20.513,108.553-22.036c47.495-1.851,53.531-8.867,53.923-11.793
			c0.761-5.665-14.968-14.273-29.975-19.008c-24.241-7.646-28.751-12.74-29.554-14.118c-0.457-0.789-0.194-1.801,0.6-2.264
			c0.794-0.454,1.805-0.187,2.262,0.6c0.029,0.045,3.068,4.861,27.689,12.626c0.34,0.104,33.848,10.812,32.261,22.604
			c-0.716,5.366-7.411,12.722-57.073,14.664C42.155,49.718,13.524,58.771,11.755,66.268c-0.567,2.404,2.146,5.387,7.633,8.407
			c9.333,5.136,21.734,9.271,32.676,12.928c16.596,5.542,25.258,8.652,25.395,13.271c0.09,3.027-3.564,4.852-6.322,5.958
			c-9.557,3.838-25.928,4.871-43.259,5.97c-21.479,1.359-43.692,2.756-52.81,9.624c-1.723,1.297-2.458,2.448-2.194,3.42
			c1.577,5.832,28.414,11.501,46.968,13.66c0.906,0.108,1.56,0.934,1.451,1.841C21.193,142.189,20.477,142.807,19.651,142.807z"/>
	</g>
	<g>
		<path fill="#FFFFFF" d="M-14.864,136.076c-0.1,0-0.199,0-0.303-0.028c-7.171-1.333-70.086-13.542-71.519-29.606
			c-0.454-5.089,4.554-9.551,15.312-13.633c26.231-9.961,29.356-16.546,28.885-19.594c-0.676-4.354-10.926-14.961-91.274-19.343
			c-0.917-0.054-1.616-0.834-1.569-1.751c0.05-0.907,0.852-1.633,1.747-1.561c61.711,3.366,92.58,10.612,94.371,22.147
			c1.129,7.266-9.002,14.848-30.981,23.192c-8.925,3.394-13.488,6.941-13.188,10.25c0.912,10.215,42.697,21.762,68.825,26.643
			c0.898,0.172,1.491,1.033,1.324,1.932C-13.385,135.522-14.084,136.076-14.864,136.076z"/>
	</g>
	<g>
		<path fill="#FFFFFF" d="M-30.37,125.146l0.553-33.499l0.55,33.499c0.01,0.309-0.236,0.562-0.541,0.562
			c-0.303,0.009-0.558-0.236-0.562-0.544C-30.37,125.164-30.37,125.154-30.37,125.146z"/>
	</g>
	<g>
		<path fill="#FFFFFF" d="M76.547,101.026l0.554-42.302l0.548,42.302c0.01,0.299-0.234,0.554-0.543,0.554
			c-0.299,0.009-0.554-0.236-0.559-0.535C76.547,101.036,76.547,101.026,76.547,101.026z"/>
	</g>
	<g>
		<path fill="#FFFFFF" d="M8.054,66.604l0.553-49.867l0.55,49.867c0.007,0.308-0.236,0.553-0.545,0.561
			c-0.303,0-0.553-0.244-0.558-0.543C8.054,66.611,8.054,66.604,8.054,66.604z"/>
	</g>
	<g>
		<path fill="#FFFFFF" d="M9.737,64.222l0.553-49.866l0.553,49.866c0,0.3-0.244,0.553-0.548,0.553c-0.303,0-0.553-0.235-0.558-0.544
			V64.222z"/>
	</g>
	<g>
		<path fill="#FFFFFF" d="M11.677,62.045l0.555-49.867l0.553,49.867c0,0.3-0.246,0.553-0.549,0.553
			c-0.304,0-0.553-0.244-0.559-0.543C11.677,62.045,11.677,62.045,11.677,62.045z"/>
	</g>
	<g>
		<path fill="#FFFFFF" d="M14.595,60.268L15.144,10.4l0.553,49.867c0.004,0.308-0.241,0.553-0.545,0.562
			c-0.308,0-0.553-0.246-0.556-0.546C14.595,60.275,14.595,60.275,14.595,60.268z"/>
	</g>
	<g>
		<path fill="#FFFFFF" d="M18.481,58.398l0.553-49.866l0.548,49.866c0.005,0.3-0.239,0.553-0.548,0.553
			c-0.3,0-0.553-0.244-0.553-0.544C18.481,58.398,18.481,58.398,18.481,58.398z"/>
	</g>
	<g>
		<path fill="#FFFFFF" d="M22.988,56.675l0.551-49.867l0.553,49.867c0.004,0.308-0.241,0.554-0.549,0.562
			c-0.305,0-0.555-0.245-0.555-0.553V56.675z"/>
	</g>
	<g>
		<path fill="#FFFFFF" d="M28.903,54.697l0.554-49.862l0.553,49.862c0,0.309-0.244,0.553-0.549,0.562
			c-0.305,0-0.553-0.246-0.558-0.544C28.903,54.716,28.903,54.707,28.903,54.697z"/>
	</g>
	<g>
		<path fill="#FFFFFF" d="M37.975,52.565l0.553-49.856l0.553,49.856c0,0.31-0.244,0.554-0.549,0.562
			c-0.304,0-0.553-0.245-0.557-0.544C37.975,52.574,37.975,52.574,37.975,52.565z"/>
	</g>
	<g>
		<path fill="#FFFFFF" d="M47.045,50.896l0.553-49.862l0.554,49.862c0.005,0.308-0.241,0.554-0.544,0.562
			c-0.309,0-0.553-0.245-0.562-0.544C47.045,50.906,47.045,50.906,47.045,50.896z"/>
	</g>
	<g>
		<path fill="#FFFFFF" d="M56.125,49.781l0.549-49.857l0.553,49.857c0.005,0.308-0.239,0.562-0.549,0.562
			c-0.305,0-0.553-0.246-0.553-0.544C56.125,49.791,56.125,49.791,56.125,49.781z"/>
	</g>
	<g>
		<path fill="#FFFFFF" d="M65.187,48.675L65.74-1.192l0.553,49.867c0,0.298-0.244,0.554-0.544,0.554
			c-0.31,0.009-0.554-0.236-0.562-0.545V48.675z"/>
	</g>
	<g>
		<path fill="#FFFFFF" d="M74.262,47.305l0.553-49.866l0.549,49.866c0.01,0.3-0.234,0.553-0.543,0.553
			c-0.311,0.01-0.554-0.236-0.559-0.544V47.305z"/>
	</g>
	<g>
		<path fill="#FFFFFF" d="M83.338,46.997l0.553-49.858l0.553,49.858c0,0.308-0.244,0.553-0.549,0.562
			c-0.305,0-0.553-0.246-0.557-0.546C83.338,47.006,83.338,47.006,83.338,46.997z"/>
	</g>
	<g>
		<path fill="#FFFFFF" d="M92.408,46.397l0.553-49.866l0.549,49.866c0.004,0.3-0.24,0.553-0.544,0.553
			c-0.305,0-0.558-0.244-0.558-0.544C92.408,46.397,92.408,46.397,92.408,46.397z"/>
	</g>
	<g>
		<path fill="#FFFFFF" d="M110.549,45.328l0.549-40.125l0.553,40.125c0.006,0.308-0.238,0.562-0.543,0.562s-0.559-0.236-0.559-0.545
			C110.549,45.346,110.549,45.336,110.549,45.328z"/>
	</g>
	<g>
		<path fill="#FFFFFF" d="M111.103-2.398l0.554-31.603l0.553,31.603c0,0.299-0.234,0.554-0.544,0.562
			c-0.308,0-0.558-0.245-0.562-0.545C111.103-2.391,111.103-2.398,111.103-2.398z"/>
	</g>
	<g>
		<path fill="#FFFFFF" d="M113.945-0.585l0.551-31.602l0.553,31.602c0.005,0.3-0.236,0.554-0.545,0.562
			c-0.299,0-0.553-0.239-0.559-0.544C113.945-0.575,113.945-0.58,113.945-0.585z"/>
	</g>
	<g>
		<path fill="#FFFFFF" d="M116.727,0.758l0.554-31.602l0.554,31.602c0,0.305-0.236,0.553-0.545,0.562
			c-0.309,0.004-0.558-0.239-0.562-0.544C116.727,0.767,116.727,0.767,116.727,0.758z"/>
	</g>
	<g>
		<path fill="#FFFFFF" d="M119.733,2.381l0.548-31.602l0.554,31.602c0.009,0.301-0.234,0.555-0.544,0.559
			c-0.3,0.004-0.553-0.24-0.558-0.539C119.733,2.391,119.733,2.386,119.733,2.381z"/>
	</g>
	<g>
		<path fill="#FFFFFF" d="M124.328,5.113l0.553-31.604l0.549,31.604c0.004,0.303-0.236,0.553-0.539,0.561
			c-0.31,0.006-0.562-0.239-0.562-0.544C124.328,5.121,124.328,5.117,124.328,5.113z"/>
	</g>
	<g>
		<path fill="#FFFFFF" d="M130.506,7.643l0.553-31.598l0.553,31.598c0.006,0.309-0.236,0.558-0.543,0.562
			c-0.305,0.009-0.555-0.235-0.562-0.539C130.506,7.666,130.506,7.651,130.506,7.643z"/>
	</g>
	<g>
		<path fill="#FFFFFF" d="M137.925,9.773l0.553-31.602l0.554,31.602c0,0.305-0.24,0.555-0.545,0.562
			c-0.307,0.005-0.557-0.238-0.562-0.543C137.925,9.783,137.925,9.778,137.925,9.773z"/>
	</g>
	<g>
		<path fill="#FFFFFF" d="M147.113,13.421l0.553-31.604l0.549,31.604c0.005,0.3-0.239,0.553-0.543,0.562
			c-0.304,0-0.559-0.245-0.559-0.543C147.113,13.43,147.113,13.426,147.113,13.421z"/>
	</g>
	<g>
		<path fill="#FFFFFF" d="M154.002,15.753l0.554-31.604l0.549,31.604c0.009,0.298-0.235,0.553-0.544,0.558
			c-0.3,0.003-0.553-0.241-0.559-0.541C154.002,15.761,154.002,15.758,154.002,15.753z"/>
	</g>
	<g>
		<path fill="#FFFFFF" d="M161.068,19.499l0.549-31.604l0.554,31.604c0.005,0.303-0.235,0.553-0.544,0.562
			c-0.3,0.005-0.553-0.241-0.559-0.546C161.068,19.508,161.068,19.504,161.068,19.499z"/>
	</g>
	<g>
		<path fill="#FFFFFF" d="M164.761,22.092l0.548-31.602l0.554,31.602c0.005,0.305-0.234,0.558-0.544,0.562
			c-0.3,0.005-0.553-0.234-0.558-0.544C164.761,22.105,164.761,22.102,164.761,22.092z"/>
	</g>
	<g>
		<path fill="#FFFFFF" d="M167.523,23.521l0.549-31.604l0.553,31.604c0.004,0.303-0.24,0.558-0.544,0.558
			c-0.304,0.01-0.558-0.236-0.558-0.54C167.523,23.535,167.523,23.526,167.523,23.521z"/>
	</g>
	<g>
		<path fill="#FFFFFF" d="M169.809,25.748l0.553-31.604l0.554,31.604c0,0.305-0.235,0.558-0.544,0.562
			c-0.305,0.004-0.553-0.236-0.562-0.544C169.809,25.762,169.809,25.758,169.809,25.748z"/>
	</g>
	<g>
		<path fill="#FFFFFF" d="M171.73,28.098l0.555-31.604l0.549,31.604c0.005,0.304-0.24,0.553-0.544,0.562
			c-0.304,0.004-0.56-0.241-0.56-0.545C171.73,28.111,171.73,28.106,171.73,28.098z"/>
	</g>
	<g>
		<path fill="#FFFFFF" d="M173.21,31.037l0.554-31.604l0.548,31.604c0.005,0.298-0.234,0.553-0.539,0.558
			c-0.308,0.005-0.562-0.236-0.562-0.541C173.21,31.046,173.21,31.041,173.21,31.037z"/>
	</g>
	<g>
		<path fill="#FFFFFF" d="M101.479,45.735l0.553-49.866l0.554,49.866c0.005,0.3-0.244,0.553-0.544,0.553
			c-0.309,0.01-0.553-0.235-0.562-0.544V45.735z"/>
	</g>
	<g>
		<path fill="#FFFFFF" d="M-41.263,72.019l0.553-49.867l0.549,49.867c0.009,0.308-0.236,0.553-0.544,0.562
			c-0.309,0-0.553-0.246-0.558-0.544V72.019z"/>
	</g>
	<g>
		<path fill="#FFFFFF" d="M-40.013,74.15l0.55-49.867l0.553,49.867c0.01,0.298-0.241,0.553-0.543,0.562
			c-0.309,0-0.553-0.246-0.56-0.554V74.15z"/>
	</g>
	<g>
		<path fill="#FFFFFF" d="M-42.865,70.005l0.55-49.867l0.553,49.867c0.005,0.308-0.241,0.553-0.548,0.562
			c-0.305,0-0.555-0.246-0.555-0.544C-42.865,70.014-42.865,70.005-42.865,70.005z"/>
	</g>
	<g>
		<path fill="#FFFFFF" d="M-44.733,67.973l0.553-49.871l0.548,49.871c0.005,0.309-0.241,0.553-0.544,0.562
			c-0.304,0-0.558-0.246-0.558-0.544C-44.733,67.981-44.733,67.973-44.733,67.973z"/>
	</g>
	<g>
		<path fill="#FFFFFF" d="M-47.427,66.349l0.549-49.867l0.548,49.867c0.009,0.31-0.236,0.554-0.544,0.562
			c-0.304,0-0.553-0.244-0.553-0.554V66.349z"/>
	</g>
	<g>
		<path fill="#FFFFFF" d="M-51.319,64.467l0.555-49.857l0.553,49.857c0.005,0.308-0.245,0.559-0.545,0.567
			c-0.308,0-0.553-0.25-0.562-0.55C-51.319,64.477-51.319,64.467-51.319,64.467z"/>
	</g>
	<g>
		<path fill="#FFFFFF" d="M-55.817,62.752l0.553-49.866l0.549,49.866c0.004,0.309-0.241,0.553-0.544,0.562
			c-0.305,0-0.558-0.244-0.558-0.554V62.752z"/>
	</g>
	<g>
		<path fill="#FFFFFF" d="M-61.74,60.775l0.553-49.862l0.553,49.862c0,0.308-0.246,0.553-0.548,0.562
			c-0.305,0-0.555-0.246-0.558-0.545C-61.74,60.785-61.74,60.775-61.74,60.775z"/>
	</g>
	<g>
		<path fill="#FFFFFF" d="M-70.811,58.644l0.553-49.858l0.553,49.858c0,0.308-0.246,0.554-0.544,0.562
			c-0.309,0-0.559-0.245-0.562-0.546C-70.811,58.653-70.811,58.653-70.811,58.644z"/>
	</g>
	<g>
		<path fill="#FFFFFF" d="M-79.881,56.975l0.548-49.862l0.553,49.862c0.004,0.308-0.241,0.554-0.549,0.562
			c-0.304,0-0.553-0.245-0.553-0.545C-79.881,56.982-79.881,56.975-79.881,56.975z"/>
	</g>
	<g>
		<path fill="#FFFFFF" d="M-88.961,55.867l0.553-49.87l0.553,49.87c0.005,0.3-0.241,0.553-0.543,0.553
			c-0.31,0-0.553-0.234-0.562-0.543V55.867z"/>
	</g>
	<g>
		<path fill="#FFFFFF" d="M-98.024,54.752l0.555-49.866l0.548,49.866c0.005,0.3-0.241,0.553-0.545,0.553
			c-0.303,0-0.558-0.244-0.558-0.544C-98.024,54.752-98.024,54.752-98.024,54.752z"/>
	</g>
	<g>
		<path fill="#FFFFFF" d="M-107.103,53.383l0.553-49.867l0.553,49.867c0,0.298-0.246,0.553-0.549,0.553
			c-0.304,0.01-0.555-0.236-0.558-0.543V53.383z"/>
	</g>
	<g>
		<path fill="#FFFFFF" d="M-116.174,53.073l0.553-49.86l0.553,49.86c0,0.31-0.246,0.554-0.544,0.562
			c-0.309,0-0.559-0.243-0.562-0.544C-116.174,53.083-116.174,53.083-116.174,53.073z"/>
	</g>
	<g>
		<path fill="#FFFFFF" d="M-125.245,52.466l0.553-49.857l0.553,49.857c0,0.308-0.246,0.562-0.544,0.562
			c-0.309,0-0.555-0.245-0.562-0.544C-125.245,52.476-125.245,52.476-125.245,52.466z"/>
	</g>
	<g>
		<path fill="#FFFFFF" d="M-135.345,52.393l0.553-49.86l0.548,49.86c0.009,0.31-0.236,0.554-0.544,0.562
			c-0.304,0-0.553-0.244-0.558-0.543C-135.345,52.402-135.345,52.393-135.345,52.393z"/>
	</g>
	<g>
		<path fill="#FFFFFF" d="M119.62,45.073l0.554-33.925l0.553,33.925c0,0.308-0.234,0.562-0.544,0.562
			c-0.305,0.009-0.558-0.236-0.562-0.544C119.62,45.092,119.62,45.082,119.62,45.073z"/>
	</g>
	<g>
		<path fill="#FFFFFF" d="M128.695,44.466l0.549-30.337l0.553,30.337c0.01,0.308-0.234,0.562-0.539,0.562
			c-0.305,0.009-0.558-0.236-0.562-0.546C128.695,44.482,128.695,44.475,128.695,44.466z"/>
	</g>
	<g>
		<path fill="#FFFFFF" d="M137.762,43.759l0.553-26.883l0.553,26.883c0,0.308-0.234,0.554-0.543,0.562
			c-0.303,0.008-0.553-0.236-0.562-0.536C137.762,43.775,137.762,43.767,137.762,43.759z"/>
	</g>
	<g>
		<path fill="#FFFFFF" d="M146.842,42.642l0.553-23.121l0.549,23.121c0.004,0.31-0.232,0.562-0.539,0.571
			c-0.305,0-0.559-0.235-0.562-0.543C146.842,42.66,146.842,42.651,146.842,42.642z"/>
	</g>
	<g>
		<path fill="#FFFFFF" d="M155.912,41.027l0.549-18.971l0.553,18.971c0.01,0.3-0.23,0.553-0.539,0.562
			c-0.3,0.01-0.553-0.227-0.562-0.534C155.912,41.046,155.912,41.037,155.912,41.027z"/>
	</g>
	<g>
		<path fill="#FFFFFF" d="M161.033,39.758l0.553-15.941l0.549,15.941c0.014,0.3-0.227,0.562-0.531,0.572
			c-0.303,0.009-0.558-0.227-0.57-0.536C161.033,39.784,161.033,39.768,161.033,39.758z"/>
	</g>
	<g>
		<path fill="#FFFFFF" d="M164.564,38.488l0.555-12.024l0.554,12.024c0.008,0.308-0.228,0.57-0.526,0.58
			c-0.309,0.019-0.567-0.218-0.582-0.525C164.564,38.524,164.564,38.506,164.564,38.488z"/>
	</g>
	<g>
		<path fill="#FFFFFF" d="M166.861,37.527l0.553-9.085l0.554,9.085c0.017,0.307-0.218,0.571-0.518,0.588
			c-0.31,0.02-0.571-0.208-0.589-0.516C166.861,37.572,166.861,37.553,166.861,37.527z"/>
	</g>
	<g>
		<path fill="#FFFFFF" d="M169.133,36.52l0.553-6.31l0.549,6.31c0.028,0.299-0.199,0.57-0.498,0.599
			c-0.309,0.028-0.582-0.199-0.604-0.508C169.129,36.584,169.129,36.547,169.133,36.52z"/>
	</g>
	<g>
		<path fill="#FFFFFF" d="M74.646,99.167l0.554-41.53l0.548,41.53c0.006,0.309-0.238,0.562-0.543,0.562
			c-0.303,0-0.559-0.246-0.559-0.544C74.646,99.176,74.646,99.176,74.646,99.167z"/>
	</g>
	<g>
		<path fill="#FFFFFF" d="M72.135,97.044l0.549-40.396l0.553,40.396c0.004,0.31-0.239,0.554-0.544,0.562
			c-0.304,0-0.558-0.245-0.558-0.544C72.135,97.054,72.135,97.044,72.135,97.044z"/>
	</g>
	<g>
		<path fill="#FFFFFF" d="M69.486,95.874l0.549-39.353l0.554,39.353c0.003,0.308-0.241,0.562-0.546,0.562
			c-0.303,0.01-0.557-0.235-0.557-0.544C69.486,95.893,69.486,95.884,69.486,95.874z"/>
	</g>
	<g>
		<path fill="#FFFFFF" d="M65.309,94.106l0.549-37.54l0.553,37.54c0.01,0.298-0.236,0.553-0.543,0.561
			c-0.305,0-0.553-0.244-0.559-0.544C65.309,94.114,65.309,94.106,65.309,94.106z"/>
	</g>
	<g>
		<path fill="#FFFFFF" d="M59.949,92.083l0.548-35.436l0.554,35.436c0.009,0.299-0.236,0.554-0.545,0.562
			c-0.299,0-0.555-0.245-0.557-0.545C59.949,92.091,59.949,92.083,59.949,92.083z"/>
	</g>
	<g>
		<path fill="#FFFFFF" d="M53.322,89.951l0.553-33.304l0.553,33.304c0,0.308-0.236,0.554-0.543,0.562
			c-0.305,0.01-0.553-0.236-0.562-0.545C53.322,89.969,53.322,89.961,53.322,89.951z"/>
	</g>
	<g>
		<path fill="#FFFFFF" d="M46.7,87.773l0.553-30.682l0.554,30.682c0.009,0.3-0.234,0.555-0.545,0.562
			c-0.303,0-0.553-0.234-0.562-0.544C46.7,87.782,46.7,87.782,46.7,87.773z"/>
	</g>
	<g>
		<path fill="#FFFFFF" d="M40.073,85.334l0.55-27.471l0.553,27.471c0.01,0.3-0.235,0.553-0.54,0.562
			c-0.304,0.009-0.558-0.236-0.562-0.544C40.073,85.353,40.073,85.343,40.073,85.334z"/>
	</g>
	<g>
		<path fill="#FFFFFF" d="M33.457,83.013l0.549-24.216l0.549,24.216c0.01,0.308-0.232,0.562-0.535,0.57
			c-0.309,0-0.562-0.235-0.562-0.544C33.457,83.029,33.457,83.021,33.457,83.013z"/>
	</g>
	<g>
		<path fill="#FFFFFF" d="M26.826,80.381l0.553-20.867l0.549,20.867c0.01,0.3-0.231,0.555-0.539,0.562
			c-0.305,0.009-0.553-0.228-0.562-0.535C26.826,80.399,26.826,80.39,26.826,80.381z"/>
	</g>
	<g>
		<path fill="#FFFFFF" d="M21.664,78.05l0.549-17.274l0.555,17.274c0.004,0.31-0.231,0.562-0.535,0.571
			c-0.304,0.01-0.559-0.227-0.568-0.534C21.664,78.078,21.664,78.059,21.664,78.05z"/>
	</g>
	<g>
		<path fill="#FFFFFF" d="M17.682,76.027L18.235,61.9l0.555,14.127c0.013,0.299-0.227,0.562-0.531,0.571s-0.558-0.227-0.577-0.534
			C17.682,76.055,17.682,76.036,17.682,76.027z"/>
	</g>
	<g>
		<path fill="#FFFFFF" d="M15.17,74.403l0.553-10.971l0.553,10.971c0.014,0.3-0.222,0.562-0.525,0.581
			c-0.304,0.01-0.562-0.227-0.581-0.527C15.17,74.44,15.17,74.422,15.17,74.403z"/>
	</g>
	<g>
		<path fill="#FFFFFF" d="M11.459,71.175l0.55-6.041l0.553,6.041c0.026,0.3-0.196,0.571-0.503,0.598
			c-0.305,0.028-0.572-0.189-0.6-0.499C11.457,71.238,11.457,71.201,11.459,71.175z"/>
	</g>
	<g>
		<path fill="#FFFFFF" d="M12.967,72.59l0.548-7.484l0.553,7.484c0.023,0.308-0.208,0.572-0.513,0.599
			c-0.305,0.019-0.572-0.208-0.589-0.518C12.962,72.645,12.962,72.616,12.967,72.59z"/>
	</g>
	<g>
		<path fill="#FFFFFF" d="M-86.267,104.764l0.553-39.648l0.553,39.648c0,0.309-0.246,0.553-0.544,0.562
			c-0.309,0-0.559-0.236-0.562-0.544C-86.267,104.772-86.267,104.772-86.267,104.764z"/>
	</g>
	<g>
		<path fill="#FFFFFF" d="M-84.145,102.414l0.553-38.899l0.553,38.899c0,0.309-0.246,0.562-0.544,0.562
			c-0.309,0.01-0.56-0.236-0.562-0.544C-84.145,102.433-84.145,102.424-84.145,102.414z"/>
	</g>
	<g>
		<path fill="#FFFFFF" d="M-81.623,100.337l0.548-37.774l0.548,37.774c0.009,0.309-0.236,0.562-0.539,0.562
			c-0.305,0.009-0.558-0.236-0.558-0.544C-81.623,100.346-81.623,100.346-81.623,100.337z"/>
	</g>
	<g>
		<path fill="#FFFFFF" d="M-78.98,99.24l0.553-37.087l0.55,37.087c0.009,0.307-0.236,0.553-0.545,0.562
			c-0.303,0-0.553-0.246-0.558-0.545C-78.98,99.249-78.98,99.24-78.98,99.24z"/>
	</g>
	<g>
		<path fill="#FFFFFF" d="M-74.802,95.801l0.553-33.385l0.548,33.385c0.005,0.301-0.236,0.554-0.539,0.562
			c-0.31,0-0.562-0.243-0.562-0.543V95.801z"/>
	</g>
	<g>
		<path fill="#FFFFFF" d="M-69.451,93.762l0.553-30.465l0.555,30.465c0.008,0.307-0.236,0.553-0.541,0.562
			c-0.304,0.008-0.558-0.236-0.567-0.546C-69.451,93.778-69.451,93.771-69.451,93.762z"/>
	</g>
	<g>
		<path fill="#FFFFFF" d="M-64.145,91.729l0.555-27.37l0.553,27.37c0.008,0.301-0.236,0.554-0.545,0.562
			c-0.299,0-0.553-0.236-0.562-0.543C-64.145,91.738-64.145,91.729-64.145,91.729z"/>
	</g>
	<g>
		<path fill="#FFFFFF" d="M-82.554,111.449l0.548-8.646l0.555,8.646c0.017,0.308-0.21,0.571-0.518,0.589
			c-0.305,0.019-0.567-0.218-0.585-0.518C-82.559,111.494-82.559,111.468-82.554,111.449z"/>
	</g>
	<g>
		<path fill="#FFFFFF" d="M-80.436,113.198l0.555-10.403l0.553,10.403c0.018,0.3-0.217,0.562-0.522,0.581
			c-0.304,0.02-0.567-0.217-0.585-0.525C-80.436,113.236-80.436,113.217-80.436,113.198z"/>
	</g>
	<g>
		<path fill="#FFFFFF" d="M-77.924,114.814l0.555-13.825l0.553,13.825c0.009,0.308-0.227,0.562-0.536,0.58
			c-0.298,0.009-0.558-0.228-0.572-0.535C-77.924,114.85-77.924,114.832-77.924,114.814z"/>
	</g>
	<g>
		<path fill="#FFFFFF" d="M-75.27,116.592l0.548-16.709l0.555,16.709c0.008,0.3-0.227,0.562-0.536,0.572
			c-0.3,0.009-0.553-0.236-0.567-0.536C-75.27,116.61-75.27,116.602-75.27,116.592z"/>
	</g>
	<g>
		<path fill="#FFFFFF" d="M-71.101,118.36l0.553-19.692l0.553,19.692c0.009,0.309-0.231,0.562-0.536,0.571
			c-0.308,0.01-0.562-0.236-0.57-0.534C-71.101,118.388-71.101,118.369-71.101,118.36z"/>
	</g>
	<g>
		<path fill="#FFFFFF" d="M-65.731,120.139l0.548-19.249l0.553,19.249c0.009,0.299-0.231,0.554-0.539,0.562
			c-0.3,0.008-0.553-0.227-0.562-0.535C-65.731,120.156-65.731,120.146-65.731,120.139z"/>
	</g>
	<g>
		<path fill="#FFFFFF" d="M-60.435,122.488l0.553-19.004l0.553,19.004c0.009,0.308-0.234,0.562-0.539,0.57
			c-0.303,0.01-0.558-0.234-0.567-0.534C-60.435,122.515-60.435,122.496-60.435,122.488z"/>
	</g>
	<g>
		<path fill="#FFFFFF" d="M-55.309,124.013l0.553-16.837l0.553,16.837c0.009,0.298-0.232,0.561-0.536,0.57
			c-0.308,0.009-0.562-0.235-0.57-0.534C-55.309,124.039-55.309,124.021-55.309,124.013z"/>
	</g>
	<g>
		<path fill="#FFFFFF" d="M-49.223,126.542l0.553-16.173l0.553,16.173c0.009,0.3-0.227,0.554-0.535,0.571
			c-0.305,0.01-0.558-0.235-0.572-0.534C-49.223,126.561-49.223,126.551-49.223,126.542z"/>
	</g>
	<g>
		<path fill="#FFFFFF" d="M-43.028,128.293l0.555-12.264l0.553,12.264c0.009,0.3-0.227,0.562-0.527,0.572
			c-0.309,0.017-0.567-0.218-0.581-0.527C-43.028,128.319-43.028,128.303-43.028,128.293z"/>
	</g>
	<g>
		<path fill="#FFFFFF" d="M-36.234,130.262l0.553-9.724l0.553,9.724c0.014,0.299-0.218,0.562-0.521,0.581
			c-0.305,0.017-0.567-0.219-0.586-0.518C-36.234,130.297-36.234,130.28-36.234,130.262z"/>
	</g>
	<g>
		<path fill="#FFFFFF" d="M-59.246,89.67l0.553-24.037l0.553,24.037c0.009,0.308-0.234,0.562-0.539,0.57
			c-0.305,0-0.558-0.234-0.567-0.543C-59.246,89.688-59.246,89.678-59.246,89.67z"/>
	</g>
	<g>
		<path fill="#FFFFFF" d="M-54.739,85.951l0.55-18.586l0.553,18.586c0.009,0.299-0.231,0.553-0.536,0.571
			c-0.303,0.009-0.558-0.236-0.567-0.544C-54.739,85.969-54.739,85.96-54.739,85.951z"/>
	</g>
	<g>
		<path fill="#FFFFFF" d="M-50.764,83.928l0.553-14.568l0.553,14.568c0.009,0.3-0.227,0.562-0.536,0.572
			c-0.303,0.009-0.562-0.228-0.57-0.537C-50.764,83.955-50.764,83.938-50.764,83.928z"/>
	</g>
	<g>
		<path fill="#FFFFFF" d="M-48.244,82.304l0.555-11.547l0.548,11.547c0.014,0.31-0.222,0.562-0.527,0.581
			c-0.303,0.01-0.562-0.217-0.576-0.526C-48.244,82.342-48.244,82.322-48.244,82.304z"/>
	</g>
	<g>
		<path fill="#FFFFFF" d="M-44.534,79.075l0.55-5.126l0.553,5.126c0.031,0.298-0.187,0.572-0.496,0.607
			c-0.303,0.036-0.58-0.182-0.607-0.489C-44.543,79.148-44.543,79.111-44.534,79.075z"/>
	</g>
	<g>
		<path fill="#FFFFFF" d="M-46.04,80.49l0.548-7.864l0.553,7.864c0.023,0.309-0.208,0.57-0.511,0.59
			c-0.309,0.027-0.572-0.209-0.59-0.509C-46.044,80.545-46.044,80.518-46.04,80.49z"/>
	</g>
	<g>
		<path fill="#FFFFFF" d="M-28.869,123.585l0.555-36.745l0.553,36.745c0,0.3-0.241,0.554-0.545,0.554
			c-0.308,0.009-0.556-0.236-0.562-0.544V123.585z"/>
	</g>
	<g>
		<path fill="#FFFFFF" d="M-26.355,121l0.553-37.987L-25.249,121c0.005,0.3-0.241,0.553-0.544,0.562
			c-0.309,0-0.553-0.244-0.562-0.554V121z"/>
	</g>
	<g>
		<path fill="#FFFFFF" d="M-22.782,118.823l0.553-38.442l0.553,38.442c0,0.3-0.246,0.553-0.544,0.553
			c-0.309,0.01-0.558-0.236-0.562-0.544V118.823z"/>
	</g>
	<g>
		<path fill="#FFFFFF" d="M-18.124,116.899l0.548-37.579l0.553,37.579c0.009,0.3-0.236,0.554-0.544,0.554
			c-0.304,0.009-0.553-0.235-0.558-0.544V116.899z"/>
	</g>
	<g>
		<path fill="#FFFFFF" d="M-11.598,115.222l0.553-37.271l0.553,37.271c0.005,0.31-0.234,0.562-0.543,0.562
			c-0.305,0.009-0.553-0.235-0.562-0.544C-11.598,115.24-11.598,115.23-11.598,115.222z"/>
	</g>
	<g>
		<path fill="#FFFFFF" d="M-5.297,113.808l0.553-36.928l0.548,36.928c0.009,0.298-0.236,0.553-0.544,0.562
			c-0.304,0-0.553-0.245-0.558-0.546C-5.297,113.816-5.297,113.808-5.297,113.808z"/>
	</g>
	<g>
		<path fill="#FFFFFF" d="M1.001,112.936L1.55,75.973l0.553,36.963c0.005,0.301-0.239,0.554-0.544,0.554
			c-0.303,0.009-0.558-0.235-0.558-0.534C1.001,112.945,1.001,112.936,1.001,112.936z"/>
	</g>
	<g>
		<path fill="#FFFFFF" d="M7.292,112.401l0.548-33.508l0.553,33.508c0.009,0.298-0.236,0.554-0.544,0.562
			c-0.3,0-0.553-0.236-0.558-0.546C7.292,112.411,7.292,112.401,7.292,112.401z"/>
	</g>
	<g>
		<path fill="#FFFFFF" d="M13.582,111.902l0.555-32.338l0.553,32.338c0,0.309-0.236,0.562-0.545,0.562
			c-0.303,0.01-0.553-0.236-0.562-0.535C13.582,111.92,13.582,111.912,13.582,111.902z"/>
	</g>
	<g>
		<path fill="#FFFFFF" d="M19.887,111.639L20.44,81.67l0.548,29.969c0.006,0.309-0.24,0.562-0.539,0.562
			c-0.309,0.01-0.558-0.236-0.562-0.544C19.887,111.657,19.887,111.648,19.887,111.639z"/>
	</g>
	<g>
		<path fill="#FFFFFF" d="M26.184,111.312L26.736,84.1l0.553,27.213c0.005,0.309-0.236,0.553-0.543,0.562
			c-0.305,0.009-0.555-0.236-0.562-0.544C26.184,111.331,26.184,111.321,26.184,111.312z"/>
	</g>
	<g>
		<path fill="#FFFFFF" d="M32.477,110.842l0.554-25.063l0.554,25.063c0.009,0.308-0.235,0.562-0.539,0.57
			c-0.305,0-0.559-0.235-0.568-0.544C32.477,110.858,32.477,110.85,32.477,110.842z"/>
	</g>
	<g>
		<path fill="#FFFFFF" d="M38.781,110.351l0.555-21.77l0.548,21.77c0.009,0.3-0.231,0.555-0.54,0.562
			c-0.299,0.009-0.554-0.234-0.562-0.534C38.781,110.369,38.781,110.359,38.781,110.351z"/>
	</g>
	<g>
		<path fill="#FFFFFF" d="M45.066,109.852l0.554-18.912l0.554,18.912c0.009,0.31-0.235,0.562-0.535,0.572
			c-0.308,0.009-0.562-0.236-0.572-0.535C45.066,109.88,45.066,109.87,45.066,109.852z"/>
	</g>
	<g>
		<path fill="#FFFFFF" d="M51.363,109.145l0.553-16.607l0.553,16.607c0.01,0.308-0.227,0.562-0.534,0.572
			c-0.305,0.008-0.558-0.227-0.571-0.536C51.363,109.171,51.363,109.154,51.363,109.145z"/>
	</g>
	<g>
		<path fill="#FFFFFF" d="M57.662,108.438l0.549-14.27l0.554,14.27c0.017,0.309-0.227,0.562-0.526,0.57
			c-0.309,0.019-0.562-0.227-0.576-0.525C57.662,108.465,57.662,108.455,57.662,108.438z"/>
	</g>
	<g>
		<path fill="#FFFFFF" d="M61.812,107.729l0.554-12.228l0.549,12.228c0.014,0.3-0.221,0.562-0.525,0.571
			c-0.305,0.02-0.568-0.217-0.577-0.526C61.812,107.758,61.812,107.738,61.812,107.729z"/>
	</g>
	<g>
		<path fill="#FFFFFF" d="M64.896,106.923L65.449,96.6l0.553,10.323c0.02,0.298-0.217,0.562-0.521,0.579
			c-0.304,0.01-0.567-0.217-0.585-0.524C64.896,106.959,64.896,106.939,64.896,106.923z"/>
	</g>
	<g>
		<path fill="#FFFFFF" d="M67.463,106.287l0.55-8.473l0.554,8.473c0.017,0.301-0.215,0.562-0.514,0.59
			c-0.309,0.018-0.571-0.218-0.59-0.517C67.459,106.332,67.459,106.307,67.463,106.287z"/>
	</g>
	<g>
		<path fill="#FFFFFF" d="M69.758,105.354l0.55-6.44l0.554,6.44c0.021,0.299-0.205,0.57-0.504,0.599
			c-0.31,0.027-0.576-0.199-0.6-0.509C69.753,105.418,69.753,105.38,69.758,105.354z"/>
	</g>
	<g>
		<path fill="#FFFFFF" d="M72.066,104.383l0.553-4.29l0.549,4.29c0.042,0.308-0.171,0.589-0.48,0.626
			c-0.299,0.036-0.579-0.182-0.621-0.481C72.062,104.482,72.062,104.428,72.066,104.383z"/>
	</g>
	<g>
		<path fill="#FFFFFF" d="M14.853,140.748l0.553-2.105l0.553,2.105c0.078,0.308-0.104,0.617-0.409,0.697
			c-0.308,0.082-0.617-0.1-0.698-0.408C14.825,140.947,14.825,140.838,14.853,140.748z"/>
	</g>
	<g>
		<path fill="#FFFFFF" d="M10.97,140.141l0.553-3.965l0.553,3.965c0.042,0.308-0.173,0.589-0.476,0.634
			c-0.305,0.037-0.586-0.173-0.631-0.48C10.961,140.249,10.961,140.193,10.97,140.141z"/>
	</g>
	<g>
		<path fill="#FFFFFF" d="M-26.837,129.354l0.553-7.157l0.553,7.157c0.019,0.308-0.208,0.571-0.507,0.598
			c-0.309,0.019-0.572-0.208-0.6-0.508C-26.837,129.418-26.837,129.383-26.837,129.354z"/>
	</g>
	<g>
		<path fill="#FFFFFF" d="M-25.067,130.316l0.553-9.225l0.553,9.225c0.014,0.308-0.217,0.571-0.522,0.589
			c-0.303,0.019-0.567-0.218-0.584-0.517C-25.067,130.361-25.067,130.343-25.067,130.316z"/>
	</g>
	<g>
		<path fill="#FFFFFF" d="M-23.117,131.277l0.553-10.432l0.548,10.432c0.019,0.309-0.217,0.572-0.521,0.58
			c-0.309,0.019-0.562-0.218-0.581-0.516C-23.117,131.322-23.117,131.295-23.117,131.277z"/>
	</g>
	<g>
		<path fill="#FFFFFF" d="M-20.206,132.493l0.553-13.025l0.553,13.025c0.014,0.308-0.227,0.562-0.525,0.581
			c-0.309,0.009-0.562-0.227-0.581-0.527C-20.206,132.528-20.206,132.512-20.206,132.493z"/>
	</g>
	<g>
		<path fill="#FFFFFF" d="M-15.752,134.062l0.553-13.035l0.555,13.035c0.008,0.307-0.227,0.562-0.532,0.581
			c-0.303,0.009-0.562-0.228-0.576-0.527C-15.752,134.098-15.752,134.081-15.752,134.062z"/>
	</g>
	<g>
		<path fill="#FFFFFF" d="M-11.298,135.549l0.548-11.909l0.553,11.909c0.014,0.31-0.222,0.562-0.525,0.581
			c-0.304,0.01-0.567-0.227-0.576-0.526C-11.298,135.586-11.298,135.567-11.298,135.549z"/>
	</g>
	<g>
		<path fill="#FFFFFF" d="M-6.853,136.61l0.553-9.769l0.553,9.769c0.017,0.3-0.217,0.562-0.522,0.581
			c-0.304,0.019-0.567-0.218-0.584-0.525C-6.853,136.647-6.853,136.629-6.853,136.61z"/>
	</g>
	<g>
		<path fill="#FFFFFF" d="M-2.395,137.699l0.548-7.828l0.553,7.828c0.028,0.31-0.208,0.572-0.508,0.589
			c-0.308,0.028-0.572-0.208-0.594-0.507C-2.4,137.754-2.4,137.726-2.395,137.699z"/>
	</g>
	<g>
		<path fill="#FFFFFF" d="M2.062,138.571l0.549-6.142l0.555,6.142c0.026,0.298-0.201,0.57-0.503,0.598
			c-0.305,0.026-0.572-0.2-0.6-0.499C2.058,138.633,2.058,138.598,2.062,138.571z"/>
	</g>
	<g>
		<path fill="#FFFFFF" d="M6.517,139.142l0.553-4.38l0.548,4.38c0.041,0.3-0.177,0.581-0.484,0.616
			c-0.3,0.047-0.581-0.172-0.617-0.479C6.508,139.232,6.508,139.187,6.517,139.142z"/>
	</g>
</g>
</svg>
