<?xml version="1.0" encoding="utf-8"?>
<!-- Generator: Adobe Illustrator 16.0.0, SVG Export Plug-In . SVG Version: 6.00 Build 0)  -->
<!DOCTYPE svg PUBLIC "-//W3C//DTD SVG 1.1//EN" "http://www.w3.org/Graphics/SVG/1.1/DTD/svg11.dtd">
<svg version="1.1" id="design" xmlns="http://www.w3.org/2000/svg" xmlns:xlink="http://www.w3.org/1999/xlink" x="0px" y="0px"
	 width="347px" height="212px" viewBox="-156 -50.5 347 212" enable-background="new -156 -50.5 347 212" xml:space="preserve">
<g>
	<g>
		<g>
			<path fill="#FFFFFF" d="M138.489,114.101h-3.717c0-64.673-52.615-117.282-117.281-117.282
				c-64.658,0-117.266,52.609-117.266,117.282h-3.717c0-66.72,54.278-120.998,120.983-120.998
				C84.212-6.897,138.489,47.381,138.489,114.101z"/>
		</g>
	</g>
	<g>
		<g>
			<g>
				<g>
					<path fill="#FFFFFF" d="M-109.497,116.334c-0.46,0-0.83-0.371-0.83-0.83c0-1.674,0.03-3.348,0.096-5.008
						c0.016-0.448,0.386-0.793,0.825-0.793c0.01,0,0.022,0,0.033,0c0.46,0.02,0.82,0.4,0.801,0.859
						c-0.065,1.639-0.098,3.289-0.098,4.941C-108.67,115.963-109.041,116.334-109.497,116.334z"/>
				</g>
			</g>
			<g>
				<g>
					<path fill="#FFFFFF" d="M-108.643,101.391c-0.028,0-0.06,0-0.098-0.005c-0.455-0.051-0.772-0.47-0.726-0.921
						c0.387-3.314,0.912-6.658,1.552-9.931c0.091-0.448,0.511-0.753,0.977-0.657c0.445,0.087,0.739,0.525,0.649,0.973
						c-0.631,3.236-1.144,6.535-1.529,9.809C-107.867,101.08-108.224,101.391-108.643,101.391z M143.612,101.162
						c-0.42,0-0.777-0.315-0.826-0.734c-0.387-3.277-0.902-6.58-1.543-9.809c-0.094-0.451,0.205-0.885,0.652-0.971
						c0.465-0.108,0.887,0.199,0.975,0.646c0.648,3.272,1.176,6.617,1.568,9.94c0.053,0.453-0.277,0.867-0.73,0.918
						C143.677,101.157,143.644,101.162,143.612,101.162z M-104.794,81.8c-0.071,0-0.151-0.011-0.221-0.036
						c-0.441-0.122-0.703-0.579-0.579-1.021c0.891-3.198,1.929-6.419,3.08-9.57c0.16-0.432,0.635-0.662,1.063-0.498
						c0.433,0.156,0.656,0.631,0.495,1.063c-1.133,3.114-2.159,6.296-3.039,9.45C-104.099,81.555-104.43,81.8-104.794,81.8z
						 M139.728,81.575c-0.361,0-0.697-0.244-0.797-0.605c-0.885-3.161-1.92-6.347-3.061-9.452c-0.158-0.428,0.062-0.905,0.496-1.059
						c0.43-0.152,0.902,0.061,1.064,0.488c1.154,3.146,2.195,6.368,3.096,9.569c0.123,0.448-0.131,0.901-0.574,1.028
						C139.878,81.564,139.802,81.575,139.728,81.575z M-97.926,63.032c-0.117,0-0.232-0.024-0.349-0.076
						c-0.415-0.192-0.6-0.688-0.408-1.104c1.384-3.023,2.916-6.047,4.546-8.983c0.218-0.397,0.73-0.549,1.128-0.315
						c0.398,0.223,0.541,0.722,0.321,1.125c-1.609,2.901-3.118,5.885-4.481,8.866C-97.315,62.85-97.616,63.032-97.926,63.032z
						 M132.835,62.83c-0.314,0-0.617-0.18-0.754-0.484c-1.375-2.987-2.891-5.971-4.496-8.856c-0.223-0.396-0.084-0.901,0.318-1.125
						c0.396-0.229,0.906-0.087,1.127,0.321c1.627,2.92,3.166,5.936,4.557,8.968c0.188,0.419,0.01,0.912-0.408,1.101
						C133.067,62.81,132.952,62.83,132.835,62.83z M-88.217,45.569c-0.155,0-0.314-0.051-0.457-0.144
						c-0.38-0.252-0.481-0.767-0.23-1.148c1.839-2.77,3.826-5.518,5.887-8.161c0.29-0.351,0.806-0.422,1.165-0.141
						c0.365,0.284,0.422,0.804,0.14,1.165c-2.04,2.611-3.997,5.319-5.812,8.052C-87.685,45.437-87.945,45.569-88.217,45.569z
						 M123.097,45.396c-0.26,0-0.527-0.133-0.688-0.366c-1.82-2.739-3.785-5.447-5.824-8.042c-0.283-0.366-0.215-0.886,0.145-1.166
						c0.355-0.279,0.879-0.219,1.16,0.138c2.072,2.636,4.057,5.374,5.898,8.147c0.258,0.383,0.15,0.892-0.227,1.146
						C123.417,45.352,123.263,45.396,123.097,45.396z M-75.903,29.836c-0.199,0-0.396-0.075-0.562-0.219
						c-0.333-0.31-0.359-0.835-0.049-1.17c2.256-2.453,4.638-4.861,7.086-7.146c0.338-0.311,0.861-0.285,1.172,0.041
						c0.309,0.335,0.29,0.859-0.04,1.17c-2.42,2.26-4.772,4.632-6.994,7.056C-75.451,29.745-75.676,29.836-75.903,29.836z
						 M110.763,29.689c-0.221,0-0.441-0.093-0.607-0.271c-2.232-2.427-4.588-4.795-6.998-7.039c-0.34-0.315-0.359-0.835-0.049-1.171
						c0.312-0.336,0.832-0.357,1.17-0.041c2.449,2.27,4.836,4.673,7.096,7.126c0.311,0.337,0.291,0.865-0.049,1.171
						C111.171,29.617,110.968,29.689,110.763,29.689z M-61.297,16.211c-0.241,0-0.481-0.107-0.646-0.316
						c-0.282-0.355-0.223-0.875,0.135-1.159c2.614-2.087,5.344-4.087,8.108-5.951c0.382-0.26,0.895-0.157,1.151,0.22
						c0.256,0.382,0.155,0.896-0.221,1.156c-2.726,1.836-5.421,3.812-8.007,5.872C-60.928,16.149-61.111,16.211-61.297,16.211z
						 M96.138,16.088c-0.178,0-0.359-0.061-0.516-0.183c-2.588-2.051-5.283-4.021-8.014-5.864c-0.377-0.254-0.482-0.762-0.223-1.148
						c0.25-0.383,0.775-0.48,1.146-0.226c2.764,1.864,5.494,3.858,8.125,5.946c0.355,0.284,0.42,0.804,0.129,1.159
						C96.626,15.982,96.384,16.088,96.138,16.088z M-44.743,5.038c-0.29,0-0.572-0.151-0.724-0.422
						c-0.225-0.397-0.089-0.906,0.312-1.13c2.909-1.649,5.915-3.196,8.942-4.612c0.406-0.178,0.91-0.01,1.104,0.408
						c0.194,0.417,0.009,0.905-0.402,1.099c-2.987,1.395-5.957,2.923-8.823,4.551C-44.462,5.004-44.606,5.038-44.743,5.038z
						 M79.565,4.942c-0.137,0-0.281-0.042-0.408-0.113c-2.865-1.618-5.834-3.141-8.838-4.53c-0.414-0.193-0.596-0.687-0.406-1.104
						c0.193-0.412,0.684-0.592,1.102-0.402c3.043,1.404,6.053,2.951,8.957,4.591c0.396,0.229,0.541,0.733,0.312,1.13
						C80.136,4.789,79.854,4.942,79.565,4.942z M-26.65-3.396c-0.338,0-0.654-0.201-0.774-0.538
						c-0.164-0.428,0.06-0.907,0.485-1.063c3.128-1.167,6.342-2.226,9.559-3.141c0.433-0.117,0.901,0.133,1.025,0.57
						c0.122,0.442-0.129,0.904-0.57,1.027c-3.175,0.906-6.345,1.943-9.434,3.095C-26.457-3.406-26.552-3.396-26.65-3.396z
						 M61.437-3.473c-0.098,0-0.193-0.014-0.285-0.056c-3.107-1.149-6.281-2.184-9.445-3.074c-0.441-0.128-0.697-0.584-0.574-1.027
						c0.127-0.438,0.582-0.697,1.023-0.57c3.209,0.905,6.42,1.955,9.57,3.125c0.434,0.151,0.648,0.632,0.492,1.059
						C62.091-3.68,61.772-3.473,61.437-3.473z M-7.443-8.862c-0.387,0-0.736-0.271-0.814-0.661
						c-0.085-0.448,0.204-0.886,0.648-0.979c3.273-0.65,6.612-1.186,9.935-1.578c0.511-0.039,0.87,0.271,0.919,0.725
						c0.058,0.453-0.271,0.864-0.721,0.915c-3.278,0.397-6.579,0.923-9.803,1.567C-7.334-8.862-7.389-8.862-7.443-8.862z
						 M42.208-8.902c-0.049,0-0.109-0.006-0.158-0.016c-3.24-0.643-6.541-1.165-9.805-1.542c-0.455-0.058-0.783-0.469-0.725-0.928
						c0.049-0.448,0.445-0.777,0.918-0.722c3.312,0.387,6.65,0.916,9.936,1.562c0.443,0.092,0.738,0.525,0.648,0.979
						C42.944-9.178,42.599-8.902,42.208-8.902z M12.388-11.213c-0.441,0-0.809-0.353-0.828-0.795
						c-0.02-0.459,0.338-0.844,0.795-0.865c3.34-0.133,6.71-0.143,10.058-0.011c0.453,0.016,0.811,0.403,0.793,0.856
						c-0.01,0.446-0.379,0.804-0.824,0.804c-0.012,0-0.018,0-0.033-0.005c-3.301-0.117-6.637-0.117-9.927,0.016
						C12.411-11.213,12.399-11.213,12.388-11.213z"/>
				</g>
			</g>
			<g>
				<g>
					<path fill="#FFFFFF" d="M144.497,116.334c-0.461,0-0.83-0.371-0.83-0.83c0-1.652-0.027-3.303-0.092-4.941
						c-0.018-0.459,0.34-0.84,0.795-0.859c0.016,0,0.023,0,0.035,0c0.445,0,0.812,0.345,0.828,0.793
						c0.061,1.66,0.09,3.334,0.09,5.008C145.323,115.963,144.954,116.334,144.497,116.334z"/>
				</g>
			</g>
		</g>
	</g>
	<g>
		<g>
			<g>
				<g>
					<path fill="#FFFFFF" d="M-115.68,124.26c-0.23,0-0.417-0.188-0.417-0.422c0-0.846,0.005-1.695,0.021-2.536
						c0-0.228,0.188-0.417,0.417-0.417h0.007c0.235,0.006,0.418,0.194,0.418,0.434c-0.016,0.835-0.021,1.679-0.021,2.52
						C-115.255,124.071-115.448,124.26-115.68,124.26z"/>
				</g>
			</g>
			<g>
				<g>
					<path fill="#FFFFFF" d="M-115.496,116.676c-0.007,0-0.01,0-0.018,0c-0.235-0.01-0.413-0.209-0.397-0.438
						c0.077-1.689,0.192-3.395,0.323-5.061c0.019-0.233,0.199-0.416,0.455-0.387c0.232,0.021,0.403,0.22,0.387,0.453
						c-0.136,1.655-0.248,3.355-0.324,5.029C-115.084,116.502-115.272,116.676-115.496,116.676z M150.478,116.422
						c-0.221,0-0.41-0.178-0.42-0.408c-0.082-1.674-0.193-3.369-0.332-5.023c-0.021-0.229,0.154-0.433,0.385-0.459
						c0.236,0.016,0.436,0.158,0.457,0.382c0.139,1.676,0.25,3.376,0.332,5.065c0.012,0.229-0.17,0.428-0.402,0.443
						C150.491,116.422,150.481,116.422,150.478,116.422z M-114.683,106.603c-0.01,0-0.029,0-0.047-0.005
						c-0.229-0.024-0.397-0.234-0.37-0.468c0.193-1.671,0.413-3.36,0.659-5.021c0.028-0.233,0.232-0.406,0.472-0.355
						c0.236,0.031,0.387,0.244,0.359,0.479c-0.241,1.648-0.464,3.327-0.652,4.998C-114.285,106.443-114.47,106.603-114.683,106.603z
						 M149.646,106.343c-0.211,0-0.391-0.151-0.416-0.366c-0.188-1.623-0.412-3.303-0.664-4.997
						c-0.033-0.235,0.127-0.448,0.354-0.479c0.027-0.011,0.043-0.011,0.064-0.011c0.207,0,0.387,0.153,0.416,0.357
						c0.256,1.709,0.48,3.403,0.664,5.028c0.027,0.234-0.137,0.443-0.369,0.468C149.681,106.343,149.661,106.343,149.646,106.343z
						 M-113.211,96.601c-0.021,0-0.049,0-0.073-0.005c-0.227-0.04-0.382-0.26-0.338-0.488c0.305-1.685,0.633-3.358,0.981-4.974
						c0.054-0.223,0.256-0.376,0.504-0.32c0.23,0.045,0.373,0.271,0.321,0.504c-0.343,1.599-0.68,3.263-0.98,4.938
						C-112.834,96.458-113.007,96.601-113.211,96.601z M148.159,96.352c-0.199,0-0.377-0.144-0.416-0.346
						c-0.311-1.705-0.643-3.365-0.986-4.943c-0.049-0.229,0.092-0.451,0.318-0.498c0.277-0.057,0.455,0.092,0.504,0.32
						c0.348,1.583,0.682,3.258,0.996,4.973c0.039,0.224-0.111,0.448-0.338,0.488C148.208,96.346,148.185,96.352,148.159,96.352z
						 M-111.081,86.727c-0.031,0-0.07-0.006-0.098-0.011c-0.233-0.062-0.37-0.284-0.31-0.513c0.403-1.6,0.844-3.249,1.316-4.896
						c0.058-0.22,0.294-0.353,0.525-0.291c0.22,0.061,0.349,0.295,0.284,0.52c-0.471,1.645-0.905,3.283-1.308,4.87
						C-110.719,86.594-110.889,86.727-111.081,86.727z M146.011,86.472c-0.188,0-0.365-0.128-0.406-0.315
						c-0.402-1.582-0.842-3.218-1.316-4.865c-0.062-0.225,0.068-0.459,0.289-0.52c0.227-0.072,0.463,0.061,0.523,0.284
						c0.477,1.66,0.92,3.304,1.318,4.897c0.057,0.224-0.08,0.448-0.307,0.508C146.081,86.472,146.044,86.472,146.011,86.472z
						 M-108.294,77.005c-0.049,0-0.087-0.005-0.136-0.021c-0.218-0.072-0.338-0.306-0.272-0.529
						c0.536-1.628,1.088-3.248,1.646-4.795c0.081-0.223,0.33-0.336,0.537-0.254c0.22,0.082,0.335,0.326,0.258,0.54
						c-0.562,1.542-1.109,3.144-1.636,4.774C-107.956,76.894-108.12,77.005-108.294,77.005z M143.214,76.761
						c-0.176,0-0.338-0.111-0.4-0.286c-0.535-1.634-1.086-3.236-1.643-4.774c-0.078-0.212,0.033-0.456,0.252-0.538
						c0.213-0.082,0.461,0.034,0.543,0.254c0.561,1.542,1.109,3.156,1.65,4.795c0.072,0.219-0.049,0.457-0.271,0.529
						C143.302,76.756,143.257,76.761,143.214,76.761z M-104.866,67.502c-0.049,0-0.101-0.011-0.155-0.03
						c-0.214-0.087-0.321-0.331-0.232-0.551c0.628-1.587,1.291-3.159,1.96-4.677c0.091-0.22,0.343-0.311,0.558-0.22
						c0.209,0.098,0.307,0.347,0.209,0.56c-0.661,1.507-1.314,3.074-1.942,4.652C-104.538,67.4-104.698,67.502-104.866,67.502z
						 M139.769,67.263c-0.172,0-0.332-0.101-0.398-0.265c-0.609-1.531-1.27-3.096-1.955-4.647c-0.094-0.214,0.004-0.462,0.217-0.56
						c0.199-0.091,0.459,0,0.559,0.22c0.688,1.562,1.355,3.135,1.965,4.671c0.086,0.226-0.021,0.47-0.234,0.55
						C139.868,67.252,139.817,67.263,139.769,67.263z M-100.796,58.244c-0.063,0-0.121-0.016-0.185-0.042
						c-0.208-0.101-0.294-0.351-0.199-0.564c0.726-1.496,1.493-3.029,2.281-4.536c0.112-0.198,0.363-0.283,0.565-0.172
						c0.209,0.106,0.292,0.36,0.182,0.57c-0.781,1.496-1.545,3.013-2.26,4.504C-100.491,58.157-100.636,58.244-100.796,58.244z
						 M135.681,58.014c-0.152,0-0.303-0.087-0.377-0.233c-0.725-1.507-1.484-3.023-2.27-4.509c-0.111-0.209-0.027-0.464,0.178-0.57
						c0.203-0.108,0.457-0.026,0.568,0.178c0.789,1.496,1.553,3.023,2.285,4.53c0.102,0.207,0.014,0.462-0.199,0.564
						C135.808,58.004,135.749,58.014,135.681,58.014z M-96.102,49.29c-0.07,0-0.14-0.016-0.208-0.056
						c-0.204-0.111-0.27-0.377-0.155-0.575c0.837-1.48,1.716-2.947,2.591-4.372c0.119-0.203,0.376-0.265,0.576-0.137
						c0.202,0.116,0.261,0.381,0.139,0.575c-0.875,1.414-1.737,2.88-2.579,4.351C-95.816,49.214-95.956,49.29-96.102,49.29z
						 M130.968,49.065c-0.145,0-0.285-0.075-0.365-0.213c-0.814-1.43-1.678-2.886-2.574-4.331c-0.119-0.193-0.062-0.459,0.143-0.581
						c0.193-0.127,0.449-0.066,0.576,0.144c0.895,1.455,1.766,2.915,2.59,4.357c0.113,0.197,0.045,0.457-0.154,0.568
						C131.112,49.052,131.04,49.065,130.968,49.065z M-90.782,40.662c-0.082,0-0.162-0.019-0.232-0.071
						c-0.194-0.132-0.251-0.387-0.122-0.579c0.935-1.41,1.908-2.821,2.891-4.185c0.145-0.183,0.408-0.233,0.589-0.096
						c0.188,0.138,0.233,0.401,0.098,0.584c-0.977,1.365-1.946,2.759-2.875,4.153C-90.515,40.596-90.644,40.662-90.782,40.662z
						 M125.657,40.469c-0.135,0-0.266-0.066-0.352-0.193c-0.896-1.348-1.859-2.738-2.855-4.122
						c-0.139-0.188-0.096-0.454,0.092-0.591c0.197-0.133,0.449-0.091,0.584,0.098c1.008,1.395,1.977,2.793,2.885,4.158
						c0.127,0.193,0.072,0.448-0.121,0.579C125.817,40.449,125.739,40.469,125.657,40.469z M-84.876,32.427
						c-0.094,0-0.185-0.029-0.262-0.085c-0.183-0.144-0.22-0.408-0.08-0.592c1.067-1.368,2.131-2.702,3.182-3.965
						c0.15-0.173,0.415-0.199,0.595-0.056c0.174,0.153,0.206,0.417,0.054,0.597c-1.041,1.252-2.106,2.573-3.162,3.938
						C-84.625,32.371-84.75,32.427-84.876,32.427z M119.769,32.289c-0.127,0-0.248-0.056-0.33-0.162
						c-1.018-1.308-2.076-2.626-3.148-3.92c-0.152-0.178-0.125-0.443,0.049-0.595c0.186-0.143,0.445-0.122,0.596,0.062
						c1.082,1.292,2.146,2.62,3.172,3.938c0.139,0.184,0.105,0.448-0.076,0.591C119.95,32.265,119.858,32.289,119.769,32.289z
						 M-78.401,24.64c-0.101,0-0.204-0.035-0.279-0.112c-0.176-0.152-0.193-0.416-0.038-0.591c1.149-1.281,2.314-2.533,3.456-3.725
						c0.162-0.169,0.423-0.18,0.602-0.011c0.16,0.157,0.167,0.428,0.007,0.59c-1.144,1.188-2.295,2.435-3.435,3.705
						C-78.173,24.589-78.285,24.64-78.401,24.64z M113.321,24.543c-0.117,0-0.234-0.047-0.32-0.137
						c-1.102-1.231-2.25-2.475-3.418-3.687c-0.164-0.173-0.154-0.437,0.01-0.595c0.17-0.168,0.436-0.158,0.596,0.011
						c1.174,1.215,2.332,2.467,3.439,3.705c0.156,0.173,0.146,0.442-0.027,0.595C113.521,24.507,113.417,24.543,113.321,24.543z
						 M-71.383,17.34c-0.115,0-0.223-0.045-0.303-0.132c-0.161-0.162-0.161-0.428,0.01-0.59c1.2-1.161,2.448-2.331,3.718-3.466
						c0.167-0.157,0.439-0.148,0.595,0.031c0.153,0.172,0.141,0.436-0.035,0.594c-1.257,1.131-2.502,2.29-3.693,3.441
						C-71.174,17.3-71.275,17.34-71.383,17.34z M106.321,17.279c-0.105,0-0.213-0.04-0.293-0.117
						c-1.18-1.146-2.416-2.295-3.682-3.424c-0.174-0.154-0.189-0.424-0.033-0.597c0.154-0.178,0.42-0.188,0.596-0.035
						c1.273,1.141,2.521,2.3,3.703,3.451c0.168,0.162,0.174,0.427,0.008,0.595C106.544,17.239,106.433,17.279,106.321,17.279z
						 M-63.852,10.576c-0.12,0-0.242-0.051-0.322-0.153c-0.15-0.178-0.122-0.442,0.052-0.595c1.299-1.074,2.633-2.143,3.963-3.172
						c0.18-0.138,0.452-0.105,0.591,0.077c0.143,0.183,0.112,0.448-0.077,0.591c-1.322,1.021-2.647,2.086-3.934,3.156
						C-63.659,10.545-63.754,10.576-63.852,10.576z M98.81,10.545c-0.098,0-0.193-0.029-0.273-0.096
						c-1.271-1.063-2.592-2.122-3.918-3.146c-0.184-0.144-0.225-0.408-0.078-0.591c0.137-0.194,0.412-0.219,0.59-0.081
						c1.336,1.032,2.662,2.097,3.949,3.165c0.176,0.153,0.203,0.419,0.053,0.597C99.052,10.494,98.929,10.545,98.81,10.545z
						 M-55.84,4.402c-0.129,0-0.261-0.062-0.343-0.178c-0.134-0.189-0.087-0.454,0.096-0.586c1.36-0.967,2.769-1.935,4.192-2.865
						c0.199-0.127,0.457-0.077,0.581,0.117c0.127,0.198,0.079,0.458-0.117,0.586c-1.412,0.931-2.814,1.888-4.161,2.846
						C-55.672,4.377-55.759,4.402-55.84,4.402z M90.819,4.381c-0.082,0-0.172-0.02-0.248-0.075c-1.385-0.988-2.783-1.94-4.154-2.84
						c-0.193-0.128-0.25-0.393-0.123-0.586c0.135-0.194,0.396-0.244,0.584-0.122c1.381,0.906,2.789,1.867,4.188,2.861
						c0.182,0.138,0.23,0.396,0.098,0.589C91.081,4.322,90.948,4.381,90.819,4.381z M-47.388-1.146c-0.143,0-0.283-0.07-0.365-0.202
						c-0.117-0.204-0.052-0.459,0.146-0.581c1.459-0.881,2.94-1.731,4.395-2.535c0.202-0.106,0.463-0.04,0.57,0.173
						c0.117,0.204,0.04,0.458-0.162,0.57c-1.444,0.795-2.916,1.639-4.368,2.515C-47.238-1.166-47.316-1.146-47.388-1.146z
						 M82.372-1.155c-0.072,0-0.146-0.021-0.215-0.062c-1.451-0.866-2.914-1.715-4.363-2.514c-0.205-0.113-0.279-0.368-0.166-0.57
						c0.111-0.209,0.375-0.275,0.574-0.169c1.459,0.806,2.93,1.654,4.393,2.535c0.193,0.116,0.26,0.376,0.141,0.575
						C82.651-1.227,82.517-1.155,82.372-1.155z M-38.542-6.021c-0.155,0-0.305-0.082-0.376-0.234
						c-0.102-0.204-0.021-0.459,0.188-0.56c1.486-0.745,3.027-1.477,4.574-2.185c0.208-0.096,0.46,0,0.557,0.209
						c0.098,0.215,0.007,0.464-0.208,0.56c-1.54,0.703-3.07,1.43-4.545,2.169C-38.41-6.032-38.479-6.021-38.542-6.021z
						 M73.522-6.027c-0.055,0-0.123-0.016-0.184-0.045c-1.471-0.734-3-1.467-4.551-2.164c-0.211-0.096-0.307-0.346-0.211-0.56
						c0.098-0.208,0.35-0.3,0.561-0.208c1.561,0.701,3.1,1.436,4.58,2.178c0.203,0.102,0.291,0.355,0.184,0.57
						C73.827-6.112,73.679-6.027,73.522-6.027z M-29.344-10.181c-0.171,0-0.326-0.096-0.393-0.265
						c-0.089-0.213,0.018-0.457,0.232-0.545c1.557-0.631,3.146-1.241,4.727-1.812c0.22-0.082,0.46,0.035,0.537,0.255
						c0.081,0.223-0.031,0.464-0.251,0.539c-1.573,0.57-3.156,1.172-4.694,1.797C-29.238-10.191-29.29-10.181-29.344-10.181z
						 M64.313-10.191c-0.055,0-0.107-0.009-0.162-0.029c-1.572-0.637-3.156-1.242-4.713-1.798c-0.213-0.08-0.328-0.319-0.25-0.539
						c0.074-0.223,0.314-0.337,0.539-0.255c1.561,0.561,3.156,1.17,4.746,1.812c0.213,0.087,0.316,0.331,0.23,0.549
						C64.638-10.287,64.483-10.191,64.313-10.191z M-19.855-13.586c-0.183,0-0.349-0.117-0.404-0.295
						c-0.068-0.223,0.056-0.459,0.281-0.528c1.61-0.509,3.241-0.989,4.851-1.416c0.222-0.051,0.451,0.071,0.511,0.295
						c0.062,0.225-0.066,0.453-0.295,0.515c-1.594,0.432-3.215,0.901-4.815,1.41C-19.771-13.597-19.813-13.586-19.855-13.586z
						 M54.792-13.605c-0.043,0-0.088-0.005-0.123-0.021c-1.578-0.494-3.205-0.968-4.852-1.415c-0.223-0.062-0.359-0.291-0.297-0.514
						c0.064-0.225,0.287-0.361,0.52-0.302c1.654,0.448,3.291,0.928,4.879,1.427c0.223,0.071,0.344,0.305,0.271,0.527
						C55.136-13.719,54.968-13.605,54.792-13.605z M-10.115-16.223c-0.193,0-0.369-0.133-0.418-0.324
						c-0.047-0.225,0.098-0.453,0.32-0.51c1.655-0.373,3.322-0.713,4.967-1.018c0.262-0.051,0.455,0.105,0.493,0.334
						c0.038,0.23-0.111,0.449-0.338,0.49c-1.638,0.306-3.291,0.646-4.934,1.017C-10.057-16.223-10.086-16.223-10.115-16.223z
						 M45.007-16.242c-0.031,0-0.059,0-0.096-0.01c-1.625-0.366-3.285-0.714-4.93-1.014c-0.232-0.042-0.383-0.26-0.34-0.488
						c0.041-0.23,0.273-0.371,0.488-0.342c1.662,0.306,3.332,0.647,4.975,1.019c0.221,0.051,0.365,0.279,0.316,0.509
						C45.372-16.375,45.2-16.242,45.007-16.242z M-0.182-18.054c-0.204,0-0.389-0.153-0.417-0.368
						c-0.027-0.229,0.128-0.442,0.359-0.473c1.685-0.238,3.371-0.447,5.034-0.615c0.22-0.061,0.439,0.142,0.462,0.377
						c0.021,0.229-0.145,0.438-0.377,0.457c-1.65,0.174-3.33,0.376-5,0.611C-0.144-18.054-0.165-18.054-0.182-18.054z
						 M35.073-18.074c-0.02,0-0.037,0-0.059,0c-1.65-0.234-3.328-0.438-5-0.61c-0.232-0.021-0.4-0.23-0.377-0.459
						c0.025-0.235,0.246-0.427,0.459-0.376c1.688,0.167,3.373,0.376,5.035,0.609c0.232,0.031,0.393,0.244,0.357,0.48
						C35.462-18.229,35.278-18.074,35.073-18.074z M9.865-19.082c-0.223,0-0.406-0.168-0.422-0.393
						c-0.012-0.229,0.161-0.433,0.393-0.448c1.656-0.096,3.358-0.167,5.069-0.204c0.005,0,0.005,0,0.01,0
						c0.227,0,0.415,0.18,0.421,0.413c0.005,0.233-0.178,0.428-0.413,0.428c-1.697,0.04-3.392,0.106-5.029,0.204
						C9.886-19.082,9.875-19.082,9.865-19.082z M25.022-19.082c-0.006,0-0.018,0-0.027,0c-1.684-0.102-3.377-0.173-5.033-0.204
						c-0.232-0.006-0.416-0.194-0.41-0.428c0.004-0.233,0.188-0.418,0.42-0.418c0,0,0.006,0,0.01,0
						c1.664,0.036,3.369,0.103,5.062,0.204c0.234,0.01,0.406,0.214,0.396,0.447C25.427-19.255,25.243-19.082,25.022-19.082z"/>
				</g>
			</g>
			<g>
				<g>
					<path fill="#FFFFFF" d="M150.673,124.26c-0.232,0-0.422-0.188-0.422-0.422c0-0.565-0.004-1.125-0.01-1.685l-0.006-0.846
						c0-0.233,0.186-0.423,0.422-0.423l0,0c0.232,0,0.42,0.189,0.42,0.423l0.006,0.835c0.006,0.564,0.01,1.13,0.01,1.695
						C151.093,124.071,150.905,124.26,150.673,124.26z"/>
				</g>
			</g>
		</g>
	</g>
	<g>
		<g>
			<g>
				<g>
					<path fill="#FFFFFF" d="M-122.931,128.983c0-0.276,0-0.56,0-0.835"/>
				</g>
			</g>
			<g>
				<g>
					<path fill="#FFFFFF" d="M-122.678,119.79c0,0-0.005,0-0.011,0c-0.117,0-0.204-0.101-0.193-0.218
						c0.15-2.84,0.376-5.716,0.666-8.546c0.01-0.118,0.108-0.204,0.23-0.188c0.115,0.014,0.199,0.117,0.183,0.229
						c-0.291,2.825-0.509,5.689-0.661,8.53C-122.474,119.71-122.564,119.79-122.678,119.79z"/>
				</g>
			</g>
			<g>
				<g>
					<path fill="#FFFFFF" d="M157.651,119.521c-0.111,0-0.199-0.087-0.209-0.198c-0.145-2.79-0.377-5.66-0.682-8.527
						c-0.016-0.116,0.072-0.218,0.184-0.228c0.01,0,0.02,0,0.025,0c0.107,0,0.199,0.076,0.207,0.183
						c0.305,2.875,0.535,5.751,0.684,8.546c0.004,0.117-0.084,0.22-0.197,0.22C157.663,119.517,157.657,119.521,157.651,119.521z
						 M-120.908,102.76c-0.008,0-0.019-0.006-0.028-0.006c-0.115-0.019-0.195-0.127-0.174-0.238c0.087-0.57,0.174-1.13,0.272-1.695
						c0.018-0.117,0.125-0.209,0.237-0.167c0.108,0.016,0.188,0.122,0.167,0.233c-0.091,0.564-0.183,1.13-0.265,1.689
						C-120.713,102.678-120.805,102.76-120.908,102.76z M-119.028,92.656c-0.01,0-0.031,0-0.038-0.005
						c-0.112-0.026-0.192-0.138-0.161-0.244c0.596-2.764,1.283-5.569,2.033-8.328c0.028-0.106,0.14-0.178,0.254-0.151
						c0.106,0.034,0.174,0.151,0.146,0.265c-0.75,2.748-1.432,5.547-2.033,8.297C-118.845,92.59-118.932,92.656-119.028,92.656z
						 M153.97,92.402c-0.096,0-0.188-0.066-0.205-0.168c-0.609-2.753-1.297-5.549-2.049-8.302c-0.027-0.108,0.043-0.23,0.15-0.255
						c0.09-0.041,0.225,0.035,0.252,0.146c0.756,2.759,1.443,5.56,2.055,8.318c0.018,0.116-0.049,0.223-0.16,0.254
						C153.997,92.396,153.981,92.402,153.97,92.402z M-111.039,66.488c-0.024,0-0.047-0.005-0.077-0.02
						c-0.103-0.041-0.152-0.163-0.112-0.265c1.055-2.662,2.197-5.314,3.379-7.88c0.047-0.106,0.18-0.151,0.275-0.101
						c0.105,0.05,0.15,0.173,0.103,0.278c-1.184,2.557-2.317,5.198-3.374,7.854C-110.871,66.438-110.951,66.488-111.039,66.488z
						 M145.935,66.25c-0.084,0-0.16-0.051-0.193-0.133c-1.045-2.615-2.189-5.263-3.391-7.849c-0.047-0.111-0.006-0.233,0.098-0.284
						c0.105-0.061,0.234,0,0.283,0.102c1.203,2.602,2.344,5.246,3.396,7.874c0.043,0.112-0.012,0.229-0.117,0.274
						C145.985,66.244,145.958,66.25,145.935,66.25z M-98.796,42.027c-0.039,0-0.075-0.01-0.106-0.031
						c-0.098-0.061-0.131-0.193-0.07-0.289c1.472-2.403,3.041-4.821,4.673-7.178c0.066-0.103,0.192-0.121,0.29-0.056
						c0.098,0.066,0.118,0.199,0.054,0.295c-1.627,2.353-3.196,4.759-4.657,7.156C-98.657,41.986-98.725,42.027-98.796,42.027z
						 M133.649,41.803c-0.068,0-0.137-0.035-0.174-0.102c-1.492-2.424-3.066-4.824-4.672-7.146
						c-0.068-0.097-0.041-0.224,0.055-0.295c0.096-0.066,0.221-0.046,0.283,0.056c1.617,2.326,3.189,4.739,4.686,7.172
						c0.064,0.093,0.029,0.224-0.072,0.286C133.726,41.792,133.688,41.803,133.649,41.803z M-82.501,20.049
						c-0.052,0-0.101-0.02-0.14-0.051c-0.087-0.082-0.087-0.215-0.017-0.301c1.879-2.107,3.86-4.198,5.883-6.229
						c0.079-0.087,0.213-0.087,0.29,0c0.091,0.081,0.091,0.214,0,0.294c-2.012,2.021-3.988,4.113-5.86,6.215
						C-82.389,20.029-82.442,20.049-82.501,20.049z M117.358,19.892c-0.061,0-0.113-0.026-0.158-0.066
						c-1.9-2.128-3.871-4.215-5.854-6.19c-0.08-0.082-0.08-0.213,0-0.295c0.086-0.082,0.211-0.082,0.295,0
						c1.986,1.981,3.963,4.072,5.871,6.199c0.076,0.093,0.07,0.22-0.016,0.297C117.46,19.876,117.411,19.892,117.358,19.892z
						 M-62.511,1.42c-0.062,0-0.124-0.031-0.164-0.082c-0.073-0.096-0.056-0.229,0.04-0.295c2.26-1.741,4.595-3.421,6.94-5.009
						c0.085-0.071,0.221-0.04,0.284,0.061c0.059,0.093,0.038,0.226-0.058,0.286c-2.331,1.583-4.661,3.258-6.914,4.992
						C-62.424,1.399-62.467,1.42-62.511,1.42z M97.392,1.338c-0.041,0-0.088-0.021-0.121-0.045
						c-2.246-1.731-4.578-3.405-6.912-4.979c-0.098-0.066-0.121-0.199-0.059-0.289c0.072-0.104,0.193-0.113,0.289-0.062
						c2.34,1.583,4.672,3.264,6.934,4.993c0.092,0.071,0.111,0.204,0.037,0.295C97.517,1.307,97.458,1.338,97.392,1.338z
						 M-39.348-12.995c-0.08,0-0.157-0.04-0.192-0.116c-0.052-0.108-0.003-0.23,0.098-0.281c2.562-1.252,5.175-2.433,7.784-3.518
						c0.108-0.045,0.232,0.006,0.275,0.117c0.042,0.104-0.005,0.23-0.112,0.275c-2.605,1.069-5.213,2.25-7.763,3.502
						C-39.289-13.006-39.32-12.995-39.348-12.995z M74.249-13.041c-0.029,0-0.057-0.005-0.088-0.021
						c-2.566-1.257-5.18-2.427-7.771-3.496c-0.102-0.047-0.156-0.169-0.107-0.275c0.039-0.106,0.166-0.157,0.273-0.111
						c2.592,1.068,5.217,2.249,7.787,3.501c0.102,0.051,0.15,0.184,0.096,0.286C74.405-13.088,74.327-13.041,74.249-13.041z
						 M-13.802-22.387c-0.093,0-0.182-0.064-0.204-0.157c-0.029-0.111,0.044-0.225,0.15-0.255c2.744-0.691,5.552-1.302,8.345-1.806
						c0.098-0.037,0.222,0.05,0.243,0.167c0.017,0.111-0.06,0.225-0.171,0.244c-2.78,0.504-5.577,1.111-8.314,1.802
						C-13.774-22.387-13.791-22.387-13.802-22.387z M48.655-22.422c-0.02,0-0.035,0-0.049-0.005
						c-2.74-0.687-5.541-1.292-8.338-1.796c-0.113-0.021-0.191-0.133-0.16-0.244c0.018-0.113,0.123-0.188,0.234-0.169
						c2.809,0.504,5.621,1.114,8.361,1.801c0.115,0.031,0.184,0.148,0.152,0.255C48.829-22.482,48.753-22.422,48.655-22.422z
						 M31.874-25.455c-0.01,0-0.021,0-0.023,0c-0.562-0.066-1.129-0.128-1.693-0.184c-0.111-0.011-0.199-0.111-0.188-0.223
						c0.012-0.123,0.127-0.194,0.225-0.194c0.57,0.062,1.143,0.117,1.703,0.184c0.113,0.011,0.199,0.116,0.186,0.233
						C32.067-25.537,31.981-25.455,31.874-25.455z M13.158-26.188c-0.115,0-0.21-0.093-0.213-0.205c0-0.111,0.087-0.212,0.202-0.212
						c2.848-0.098,5.793-0.103,8.538-0.006c0.117,0.006,0.203,0.097,0.203,0.218c-0.01,0.112-0.096,0.205-0.215,0.205
						c0,0-0.002,0-0.006-0.006c-2.73-0.092-5.663-0.092-8.506,0.006H13.158z"/>
				</g>
			</g>
			<g>
				<g>
					<path fill="#FFFFFF" d="M157.927,128.148c0,0.275,0,0.559,0,0.835"/>
				</g>
			</g>
		</g>
	</g>
	<g>
		<g>
			<g>
				<path fill="#FFFFFF" d="M-123.133,133.02c-8.201,0-11.701-5.521-14.511-9.961c-2.778-4.388-4.698-7.074-8.926-7.074
					c-1.025,0-1.857-0.836-1.857-1.865c0-1.021,0.832-1.852,1.857-1.852c6.497,0,9.456,4.674,12.072,8.807
					c2.799,4.418,5.208,8.229,11.366,8.229c1.025,0,1.857,0.83,1.857,1.857C-121.276,132.189-122.108,133.02-123.133,133.02z"/>
			</g>
		</g>
		<g>
			<g>
				<path fill="#FFFFFF" d="M-123.133,133.02c-1.025,0-1.859-0.83-1.859-1.858c0-1.027,0.833-1.857,1.859-1.857
					c6.155,0,8.565-3.812,11.365-8.229c2.612-4.133,5.577-8.807,12.07-8.807c1.025,0,1.858,0.83,1.858,1.852
					c0,1.029-0.833,1.865-1.858,1.865c-4.23,0-6.145,2.687-8.924,7.074C-111.435,127.498-114.934,133.02-123.133,133.02z"/>
			</g>
		</g>
		<g>
			<g>
				<path fill="#FFFFFF" d="M-76.255,133.02c-8.201,0-11.701-5.521-14.508-9.961c-2.779-4.388-4.699-7.074-8.935-7.074
					c-1.025,0-1.859-0.836-1.859-1.865c0-1.021,0.833-1.852,1.859-1.852c6.495,0,9.458,4.674,12.07,8.807
					c2.8,4.418,5.217,8.229,11.373,8.229c1.025,0,1.857,0.83,1.857,1.857C-74.398,132.189-75.229,133.02-76.255,133.02z"/>
			</g>
		</g>
		<g>
			<g>
				<path fill="#FFFFFF" d="M-76.255,133.02c-1.025,0-1.861-0.83-1.861-1.858c0-1.027,0.835-1.857,1.861-1.857
					c6.15,0,8.57-3.812,11.367-8.229c2.614-4.133,5.576-8.807,12.073-8.807c1.027,0,1.857,0.83,1.857,1.852
					c0,1.029-0.83,1.865-1.857,1.865c-4.237,0-6.159,2.687-8.935,7.074C-64.557,127.498-68.056,133.02-76.255,133.02z"/>
			</g>
		</g>
		<g>
			<g>
				<path fill="#FFFFFF" d="M-29.38,133.02c-8.197,0-11.697-5.521-14.508-9.961c-2.779-4.388-4.696-7.074-8.926-7.074
					c-1.027,0-1.86-0.836-1.86-1.865c0-1.021,0.833-1.852,1.86-1.852c6.496,0,9.457,4.674,12.072,8.807
					c2.797,4.418,5.207,8.229,11.362,8.229c1.029,0,1.86,0.83,1.86,1.857C-27.52,132.189-28.352,133.02-29.38,133.02z"/>
			</g>
		</g>
		<g>
			<g>
				<path fill="#FFFFFF" d="M-29.38,133.02c-1.025,0-1.857-0.83-1.857-1.858c0-1.027,0.832-1.857,1.857-1.857
					c6.159,0,8.568-3.812,11.365-8.229c2.614-4.133,5.576-8.807,12.072-8.807c1.028,0,1.86,0.83,1.86,1.852
					c0,1.029-0.832,1.865-1.86,1.865c-4.23,0-6.147,2.687-8.927,7.074C-17.68,127.498-21.18,133.02-29.38,133.02z"/>
			</g>
		</g>
		<g>
			<g>
				<path fill="#FFFFFF" d="M17.497,133.02c-8.199,0-11.698-5.521-14.505-9.961c-2.776-4.388-4.698-7.074-8.935-7.074
					c-1.025,0-1.859-0.836-1.859-1.865c0-1.021,0.834-1.852,1.859-1.852c6.496,0,9.459,4.674,12.073,8.807
					c2.797,4.418,5.217,8.229,11.367,8.229c1.027,0,1.861,0.83,1.861,1.857C19.358,132.189,18.524,133.02,17.497,133.02z"/>
			</g>
		</g>
		<g>
			<g>
				<path fill="#FFFFFF" d="M17.497,133.02c-1.025,0-1.857-0.83-1.857-1.858c0-1.027,0.832-1.857,1.857-1.857
					c6.152,0,8.572-3.812,11.371-8.229c2.613-4.133,5.576-8.807,12.072-8.807c1.025,0,1.857,0.83,1.857,1.852
					c0,1.029-0.832,1.865-1.857,1.865c-4.236,0-6.158,2.687-8.936,7.074C29.198,127.498,25.698,133.02,17.497,133.02z"/>
			</g>
		</g>
		<g>
			<g>
				<path fill="#FFFFFF" d="M64.378,133.02c-8.201,0-11.701-5.521-14.514-9.961c-2.777-4.388-4.693-7.074-8.924-7.074
					c-1.025,0-1.857-0.836-1.857-1.865c0-1.021,0.832-1.852,1.857-1.852c6.494,0,9.455,4.674,12.07,8.807
					c2.799,4.418,5.209,8.229,11.367,8.229c1.025,0,1.855,0.83,1.855,1.857C66.233,132.189,65.403,133.02,64.378,133.02z"/>
			</g>
		</g>
		<g>
			<g>
				<path fill="#FFFFFF" d="M64.378,133.02c-1.027,0-1.859-0.83-1.859-1.858c0-1.027,0.832-1.857,1.859-1.857
					c6.154,0,8.564-3.812,11.361-8.229c2.617-4.133,5.576-8.807,12.074-8.807c1.023,0,1.857,0.83,1.857,1.852
					c0,1.029-0.834,1.865-1.857,1.865c-4.23,0-6.148,2.687-8.926,7.074C76.075,127.498,72.575,133.02,64.378,133.02z"/>
			</g>
		</g>
		<g>
			<g>
				<path fill="#FFFFFF" d="M111.255,133.02c-8.201,0-11.699-5.521-14.508-9.961c-2.777-4.388-4.699-7.074-8.934-7.074
					c-1.025,0-1.861-0.836-1.861-1.865c0-1.021,0.836-1.852,1.861-1.852c6.494,0,9.457,4.674,12.07,8.807
					c2.797,4.418,5.217,8.229,11.371,8.229c1.025,0,1.857,0.83,1.857,1.857C113.112,132.189,112.28,133.02,111.255,133.02z"/>
			</g>
		</g>
		<g>
			<g>
				<path fill="#FFFFFF" d="M111.255,133.02c-1.029,0-1.861-0.83-1.861-1.858c0-1.027,0.832-1.857,1.861-1.857
					c6.15,0,8.57-3.812,11.367-8.229c2.613-4.133,5.576-8.807,12.072-8.807c1.027,0,1.859,0.83,1.859,1.852
					c0,1.029-0.832,1.865-1.859,1.865c-4.236,0-6.158,2.687-8.934,7.074C122.952,127.498,119.452,133.02,111.255,133.02z"/>
			</g>
		</g>
		<g>
			<g>
				<path fill="#FFFFFF" d="M158.13,133.02c-8.199,0-11.693-5.521-14.502-9.961c-2.775-4.388-4.697-7.074-8.934-7.074
					c-1.025,0-1.859-0.836-1.859-1.865c0-1.021,0.834-1.852,1.859-1.852c6.496,0,9.459,4.677,12.076,8.807
					c2.793,4.418,5.209,8.229,11.359,8.229c1.029,0,1.859,0.83,1.859,1.857C159.989,132.189,159.159,133.02,158.13,133.02z"/>
			</g>
		</g>
		<g>
			<g>
				<path fill="#FFFFFF" d="M158.13,133.02c-1.025,0-1.857-0.83-1.857-1.858c0-1.027,0.832-1.857,1.857-1.857
					c6.152,0,8.568-3.812,11.365-8.229c2.613-4.133,5.576-8.807,12.072-8.807c1.025,0,1.859,0.83,1.859,1.852
					c0,1.029-0.834,1.865-1.859,1.865c-4.236,0-6.152,2.687-8.93,7.074C169.825,127.498,166.331,133.02,158.13,133.02z"/>
			</g>
		</g>
	</g>
</g>
</svg>
