<?xml version="1.0" encoding="utf-8"?>
<!-- Generator: Adobe Illustrator 16.0.4, SVG Export Plug-In . SVG Version: 6.00 Build 0)  -->
<!DOCTYPE svg PUBLIC "-//W3C//DTD SVG 1.1//EN" "http://www.w3.org/Graphics/SVG/1.1/DTD/svg11.dtd">
<svg version="1.1" id="design" xmlns="http://www.w3.org/2000/svg" xmlns:xlink="http://www.w3.org/1999/xlink" x="0px" y="0px"
	 width="249.5px" height="149.5px" viewBox="0 0 249.5 149.5" enable-background="new 0 0 249.5 149.5" xml:space="preserve">
<g>
	<g>
		<g>
			<path fill="#FFFFFF" d="M20.411,45.472h5.875c2.312,6.773,4.516,12.998,6.609,18.674c2.096,5.673,3.56,9.45,4.395,11.325
				c0.353,0.851,0.799,1.458,1.336,1.819c0.537,0.361,1.256,0.541,2.155,0.541h0.53v2.167c-2.039-0.095-3.604-0.159-4.695-0.192
				c-1.092-0.031-2.008-0.047-2.745-0.047c-0.707,0-1.622,0.016-2.745,0.047c-1.124,0.033-2.754,0.098-4.888,0.192v-2.167h0.434
				c1.269,0,2.126-0.143,2.577-0.432c0.448-0.289,0.674-0.803,0.674-1.542c0-0.226-0.029-0.489-0.085-0.796
				c-0.057-0.303-0.173-0.729-0.349-1.275l-1.975-5.826c-0.915-0.015-2.119-0.035-3.612-0.061c-1.491-0.024-2.423-0.037-2.793-0.037
				c-0.69,0-2.079,0.025-4.165,0.074c-0.754,0.018-1.341,0.023-1.758,0.023L15.089,68.2c-1.573,3.837-2.359,6.26-2.359,7.27
				c0,0.837,0.236,1.438,0.71,1.808c0.473,0.369,1.255,0.553,2.347,0.553h0.434v2.167c-1.83-0.095-3.25-0.159-4.262-0.192
				c-1.01-0.031-1.846-0.047-2.504-0.047c-0.546,0-1.264,0.016-2.154,0.047c-0.892,0.033-2.188,0.098-3.889,0.192v-2.167
				c1.156,0,2.078-0.2,2.77-0.601c0.689-0.4,1.275-1.076,1.757-2.024c0.69-1.251,2.247-4.749,4.671-10.495
				C15.034,58.965,17.633,52.553,20.411,45.472z M21.735,51.251l-5.249,13.316c0.609,0.015,1.256,0.027,1.938,0.035
				c0.681,0.009,1.593,0.011,2.731,0.011c1.317,0,2.345-0.002,3.083-0.011c0.738-0.008,1.429-0.021,2.07-0.035L21.735,51.251z"/>
			<path fill="#FFFFFF" d="M58.775,45.642v2.166c-0.096,0-0.232-0.008-0.408-0.025c-0.177-0.014-0.305-0.022-0.386-0.022
				c-1.364,0-2.287,0.396-2.77,1.19c-0.481,0.797-0.722,2.814-0.722,6.057v1.927v3.585c0,3.245,0.056,5.543,0.168,6.9
				c0.113,1.356,0.305,2.427,0.578,3.215c0.609,1.908,1.686,3.375,3.227,4.393c1.541,1.019,3.436,1.531,5.682,1.531
				c1.848,0,3.42-0.311,4.72-0.93c1.3-0.615,2.359-1.562,3.179-2.829c0.545-0.851,0.936-1.962,1.168-3.333
				c0.232-1.372,0.349-3.416,0.349-6.13c0-0.513-0.009-1.367-0.024-2.563c-0.016-1.195-0.023-2.129-0.023-2.805V55.44
				c0-3.385-0.241-5.512-0.723-6.379c-0.48-0.865-1.404-1.3-2.769-1.3c-0.21,0-0.37,0.005-0.481,0.013
				c-0.113,0.008-0.217,0.01-0.313,0.01v-2.142c1.493,0.078,2.733,0.14,3.721,0.18c0.987,0.039,1.833,0.06,2.54,0.06
				c0.658,0,1.456-0.021,2.396-0.06c0.938-0.04,2.163-0.102,3.672-0.18v2.166H81.17c-0.963,0-1.678,0.109-2.143,0.324
				c-0.466,0.217-0.803,0.599-1.012,1.145c-0.305,0.803-0.497,4.295-0.578,10.475c0,0.882-0.008,1.565-0.023,2.044
				c0,0.306,0,0.748,0,1.326c-0.032,5.489-0.626,9.261-1.782,11.317c-1.155,2.053-2.857,3.643-5.104,4.767
				c-2.246,1.123-4.863,1.685-7.849,1.685c-2.745,0-5.181-0.454-7.308-1.36c-2.127-0.907-3.8-2.195-5.021-3.864
				c-0.915-1.252-1.564-2.697-1.95-4.333c-0.385-1.64-0.578-4.076-0.578-7.321c0-0.865,0.024-2.405,0.072-4.623
				c0.049-2.215,0.072-3.986,0.072-5.32c0-2.809-0.229-4.554-0.686-5.237c-0.458-0.682-1.36-1.022-2.709-1.022h-0.577v-2.169
				c1.813,0.078,3.286,0.14,4.417,0.18c1.132,0.039,2.107,0.06,2.926,0.06c0.755,0,1.701-0.021,2.842-0.06
				C55.316,45.782,56.85,45.72,58.775,45.642z"/>
			<path fill="#FFFFFF" d="M87.148,77.88c0.128,0.017,0.253,0.029,0.374,0.037c0.12,0.009,0.309,0.013,0.565,0.013
				c1.316,0,2.203-0.434,2.66-1.301c0.457-0.868,0.688-3.162,0.688-6.886v-1.782v-1.662V65.41l0.096-5.395
				c0.016-1.14,0.027-2.271,0.035-3.395c0.009-1.124,0.014-2.473,0.014-4.044c0-2.024-0.246-3.333-0.736-3.926
				c-0.488-0.593-1.408-0.891-2.756-0.891h-0.506v-2.117c1.717,0.078,3.139,0.14,4.262,0.18c1.123,0.039,2.103,0.06,2.938,0.06
				c1.188,0,2.664-0.039,4.43-0.12c1.766-0.08,2.953-0.119,3.564-0.119c3.98,0,7.118,0.826,9.414,2.478
				c2.295,1.654,3.443,3.901,3.443,6.743c0,1.894-0.574,3.562-1.723,5.008c-1.146,1.446-2.868,2.681-5.164,3.709l4.719,6.645
				c2.248,3.5,3.889,5.697,4.924,6.598c1.036,0.898,2.14,1.347,3.312,1.347c0.062,0,0.155-0.008,0.275-0.022
				c0.121-0.017,0.213-0.025,0.277-0.025v2.022c-0.98,0.083-1.83,0.141-2.553,0.182c-0.722,0.039-1.356,0.06-1.902,0.06
				c-1.959,0-3.49-0.217-4.598-0.65c-1.108-0.433-2.104-1.179-2.986-2.238c-0.417-0.498-1.445-2.099-3.082-4.804
				c-1.637-2.706-3.073-5.019-4.31-6.947c-0.995,0.032-1.878,0.058-2.648,0.074s-1.517,0.022-2.239,0.022v6.404
				c0,2.457,0.241,4.002,0.723,4.635c0.48,0.636,1.428,0.951,2.84,0.951h0.675v2.167c-1.316-0.079-2.632-0.141-3.948-0.18
				s-2.664-0.06-4.045-0.06c-0.45,0-1.112,0.012-1.986,0.037c-0.875,0.022-2.557,0.091-5.045,0.202L87.148,77.88L87.148,77.88z
				 M97.936,62.688c0.851,0.05,1.573,0.083,2.167,0.107c0.594,0.024,1.091,0.037,1.493,0.037c0.496,0,1.026-0.013,1.59-0.037
				c0.561-0.024,1.146-0.058,1.757-0.107c1.396-0.9,2.419-1.921,3.069-3.069c0.65-1.148,0.975-2.492,0.975-4.035
				c0-2.006-0.678-3.631-2.033-4.874c-1.357-1.243-3.159-1.866-5.406-1.866c-0.69,0-1.32,0.024-1.89,0.072
				c-0.569,0.047-1.128,0.121-1.674,0.217c-0.017,1.751-0.028,3.58-0.036,5.488C97.939,56.534,97.936,59.22,97.936,62.688z"/>
			<path fill="#FFFFFF" d="M145.859,44.75c2.553,0,4.832,0.352,6.838,1.049c2.008,0.698,3.854,1.776,5.539,3.238
				c1.957,1.702,3.467,3.729,4.527,6.08c1.059,2.351,1.588,4.841,1.588,7.477c0,5.23-1.773,9.59-5.322,13.072
				c-3.547,3.482-7.984,5.225-13.314,5.225c-2.776,0-5.289-0.454-7.534-1.36c-2.248-0.907-4.238-2.26-5.974-4.059
				c-1.604-1.685-2.828-3.605-3.672-5.766c-0.842-2.158-1.264-4.448-1.264-6.873c0-2.681,0.525-5.171,1.578-7.476
				c1.051-2.306,2.58-4.314,4.586-6.031c1.67-1.445,3.596-2.568,5.779-3.372C141.396,45.15,143.611,44.75,145.859,44.75z
				 M156.91,63.435c0-4.543-1.051-8.194-3.152-10.957c-2.104-2.76-4.862-4.139-8.282-4.139c-3.272,0-5.888,1.227-7.838,3.682
				c-1.949,2.455-2.925,5.778-2.925,9.969c0,4.574,1.062,8.25,3.189,11.028c2.127,2.775,4.893,4.163,8.295,4.163
				c3.291,0,5.898-1.227,7.824-3.684C155.949,71.044,156.91,67.688,156.91,63.435z"/>
			<path fill="#FFFFFF" d="M170.621,77.88c0.127,0.017,0.252,0.029,0.373,0.037c0.121,0.009,0.31,0.013,0.566,0.013
				c1.316,0,2.203-0.434,2.66-1.301c0.457-0.868,0.686-3.162,0.686-6.886v-1.782v-1.662V65.41l0.098-5.395
				c0.017-1.14,0.027-2.271,0.035-3.395s0.012-2.473,0.012-4.044c0-2.024-0.243-3.333-0.733-3.926
				c-0.489-0.593-1.407-0.891-2.756-0.891h-0.506v-2.117c1.717,0.078,3.139,0.14,4.262,0.18c1.123,0.039,2.103,0.06,2.938,0.06
				c1.188,0,2.664-0.039,4.43-0.12c1.766-0.08,2.953-0.119,3.564-0.119c3.979,0,7.117,0.826,9.414,2.478
				c2.295,1.654,3.442,3.901,3.442,6.743c0,1.894-0.573,3.562-1.724,5.008c-1.146,1.446-2.868,2.681-5.164,3.709l4.72,6.645
				c2.248,3.5,3.89,5.697,4.924,6.598c1.035,0.898,2.14,1.347,3.312,1.347c0.063,0,0.156-0.008,0.277-0.022
				c0.118-0.017,0.213-0.025,0.276-0.025v2.022c-0.979,0.083-1.83,0.141-2.554,0.182c-0.723,0.039-1.356,0.06-1.901,0.06
				c-1.959,0-3.489-0.217-4.599-0.65c-1.108-0.434-2.104-1.179-2.985-2.238c-0.418-0.498-1.444-2.099-3.082-4.804
				c-1.638-2.706-3.073-5.019-4.312-6.947c-0.994,0.032-1.877,0.058-2.647,0.074c-0.771,0.017-1.517,0.022-2.237,0.022v6.404
				c0,2.457,0.239,4.002,0.723,4.635c0.479,0.636,1.428,0.951,2.84,0.951h0.674v2.167c-1.316-0.079-2.631-0.141-3.947-0.18
				s-2.664-0.06-4.045-0.06c-0.451,0-1.113,0.012-1.986,0.037c-0.875,0.022-2.557,0.091-5.045,0.202V77.88H170.621z M181.408,62.688
				c0.85,0.05,1.572,0.083,2.166,0.107c0.594,0.024,1.092,0.037,1.494,0.037c0.496,0,1.025-0.013,1.588-0.037
				c0.562-0.024,1.148-0.058,1.758-0.107c1.396-0.9,2.42-1.921,3.07-3.069s0.975-2.492,0.975-4.035c0-2.006-0.678-3.631-2.033-4.874
				c-1.356-1.243-3.159-1.866-5.405-1.866c-0.69,0-1.319,0.024-1.892,0.072c-0.567,0.047-1.127,0.121-1.674,0.217
				c-0.016,1.751-0.026,3.58-0.035,5.488C181.412,56.534,181.408,59.22,181.408,62.688z"/>
			<path fill="#FFFFFF" d="M225.189,45.472h5.875c2.311,6.773,4.514,12.998,6.609,18.674c2.094,5.673,3.559,9.45,4.395,11.325
				c0.352,0.851,0.797,1.458,1.336,1.819c0.537,0.361,1.256,0.541,2.154,0.541h0.529v2.167c-2.039-0.095-3.604-0.159-4.695-0.192
				c-1.09-0.031-2.006-0.047-2.744-0.047c-0.707,0-1.621,0.016-2.746,0.047c-1.123,0.033-2.752,0.098-4.887,0.192v-2.167h0.434
				c1.268,0,2.127-0.143,2.576-0.432c0.449-0.289,0.674-0.803,0.674-1.542c0-0.226-0.027-0.489-0.084-0.796
				c-0.057-0.303-0.172-0.729-0.35-1.275l-1.973-5.826c-0.916-0.015-2.119-0.035-3.613-0.061c-1.492-0.024-2.424-0.037-2.793-0.037
				c-0.689,0-2.078,0.025-4.164,0.074c-0.756,0.018-1.342,0.023-1.76,0.023l-0.096,0.241c-1.572,3.837-2.359,6.26-2.359,7.27
				c0,0.837,0.236,1.438,0.711,1.808c0.473,0.369,1.256,0.553,2.348,0.553H221v2.167c-1.83-0.095-3.252-0.159-4.262-0.192
				c-1.012-0.031-1.846-0.047-2.504-0.047c-0.547,0-1.264,0.016-2.156,0.047c-0.891,0.033-2.186,0.098-3.889,0.192v-2.167
				c1.156,0,2.08-0.2,2.77-0.601c0.69-0.401,1.277-1.076,1.758-2.024c0.689-1.251,2.248-4.749,4.671-10.495
				C219.813,58.965,222.412,52.553,225.189,45.472z M226.515,51.251l-5.248,13.316c0.608,0.015,1.254,0.027,1.938,0.035
				c0.682,0.009,1.592,0.011,2.731,0.011c1.315,0,2.344-0.002,3.082-0.011c0.737-0.008,1.428-0.021,2.069-0.035L226.515,51.251z"/>
			<path fill="#FFFFFF" d="M53.493,99.546v0.53c0,1.172,0.068,2.371,0.205,3.598c0.137,1.229,0.341,2.493,0.614,3.792l-2.504,0.411
				c-0.273-2.088-1.047-3.661-2.323-4.719c-1.276-1.061-3.031-1.59-5.262-1.59c-2.07,0-3.691,0.407-4.863,1.229
				c-1.172,0.82-1.758,1.949-1.758,3.393c0,0.965,0.241,1.797,0.723,2.495c0.482,0.698,1.228,1.312,2.239,1.843
				c0.786,0.416,2.147,0.945,4.081,1.588c1.934,0.644,3.366,1.146,4.298,1.517c2.103,0.866,3.681,1.999,4.731,3.396
				c1.051,1.397,1.576,3.059,1.576,4.983c0,3.5-1.34,6.295-4.021,8.38c-2.681,2.086-6.316,3.131-10.906,3.131
				c-1.51,0-3.034-0.148-4.575-0.445s-3.043-0.729-4.502-1.289c0-0.178,0.008-0.412,0.023-0.709
				c0.016-0.299,0.024-0.518,0.024-0.662c0-1.236-0.076-2.496-0.229-3.781c-0.152-1.284-0.389-2.607-0.71-3.973l2.624-0.65
				c0.609,2.953,1.593,5.018,2.949,6.188c1.357,1.172,3.375,1.76,6.056,1.76c2.167,0,3.878-0.484,5.129-1.445
				c1.253-0.963,1.878-2.255,1.878-3.876c0-2.312-2.207-4.244-6.621-5.802c-0.979-0.34-1.727-0.604-2.239-0.795
				c-3.05-1.141-5.237-2.465-6.562-3.975c-1.323-1.51-1.986-3.396-1.986-5.656c0-3.114,1.204-5.627,3.612-7.537
				c2.407-1.908,5.593-2.864,9.559-2.864c1.38,0,2.78,0.123,4.202,0.373C50.375,98.627,51.887,99.015,53.493,99.546z"/>
			<path fill="#FFFFFF" d="M62.413,98.462c2.729,0.112,5.248,0.198,7.561,0.252c2.311,0.058,4.342,0.087,6.091,0.087
				c2.938,0,5.421-0.029,7.452-0.087c2.03-0.054,3.921-0.14,5.67-0.252c0.032,1.396,0.096,2.772,0.193,4.13
				c0.096,1.355,0.232,2.725,0.409,4.105l-2.167,0.289c-0.225-2.008-0.888-3.361-1.986-4.07c-1.1-0.706-3.303-1.059-6.609-1.059
				c-0.594,0-1.385,0.012-2.372,0.036c-0.987,0.024-2.194,0.06-3.624,0.107c-0.031,2.118-0.06,4.149-0.083,6.092
				c-0.024,1.94-0.053,3.805-0.085,5.584h0.698c0.931,0,2.091,0.009,3.479,0.024c1.388,0.017,2.315,0.024,2.781,0.024
				c2.215,0,3.668-0.217,4.357-0.649c0.689-0.434,1.06-1.26,1.107-2.48l1.781,0.17c0,0.801-0.023,1.809-0.072,3.021
				c-0.047,1.211-0.072,2.033-0.072,2.468c0,0.434,0.013,0.987,0.037,1.659c0.024,0.677,0.061,1.488,0.107,2.434l-2.021,0.145
				v-0.289c0-1.379-0.397-2.311-1.192-2.791c-0.794-0.483-2.669-0.724-5.622-0.724h-3.588h-1.83v2.769
				c0,1.429,0.009,2.895,0.025,4.395c0.016,1.501,0.039,3.288,0.072,5.357c0.722,0.097,1.625,0.173,2.709,0.229
				c1.082,0.057,2.266,0.084,3.551,0.084c3.836,0,6.393-0.398,7.669-1.203c1.274-0.803,2.307-2.344,3.094-4.623l2.215,0.697
				c-0.53,1.543-0.983,3.012-1.36,4.407s-0.695,2.755-0.951,4.067c-3.788-0.127-6.806-0.215-9.053-0.266
				c-2.248-0.047-4.246-0.068-5.996-0.068c-1.975,0-5.128,0.068-9.461,0.215c-1.494,0.049-2.625,0.088-3.396,0.119v-2.119
				c0.097,0.018,0.205,0.029,0.326,0.037c0.119,0.01,0.301,0.014,0.541,0.014c1.348,0,2.264-0.414,2.746-1.24
				c0.48-0.826,0.721-2.998,0.721-6.513v-2.409v-2.214l0.049-5.369c0-0.242,0.008-0.604,0.023-1.084
				c0.049-1.976,0.072-3.323,0.072-4.046s-0.008-1.477-0.023-2.264c-0.017-0.784-0.024-1.219-0.024-1.301
				c0-1.396-0.253-2.367-0.759-2.912c-0.506-0.547-1.385-0.817-2.636-0.817h-0.554V98.462z"/>
			<path fill="#FFFFFF" d="M97.766,130.748c0.128,0.018,0.253,0.029,0.374,0.037c0.12,0.01,0.309,0.014,0.565,0.014
				c1.316,0,2.203-0.434,2.66-1.301c0.457-0.867,0.688-3.162,0.688-6.887v-1.781v-1.662v-0.889l0.096-5.396
				c0.016-1.14,0.027-2.271,0.035-3.396c0.009-1.123,0.014-2.473,0.014-4.043c0-2.024-0.246-3.334-0.736-3.927
				c-0.488-0.593-1.408-0.89-2.756-0.89H98.2V98.51c1.717,0.078,3.139,0.141,4.262,0.18s2.103,0.061,2.938,0.061
				c1.188,0,2.664-0.039,4.43-0.12c1.766-0.08,2.953-0.119,3.564-0.119c3.98,0,7.118,0.826,9.414,2.479
				c2.295,1.652,3.444,3.899,3.444,6.742c0,1.895-0.574,3.562-1.724,5.008c-1.146,1.445-2.868,2.682-5.164,3.709l4.719,6.645
				c2.249,3.5,3.889,5.697,4.924,6.598c1.035,0.898,2.139,1.348,3.312,1.348c0.062,0,0.154-0.008,0.275-0.023
				c0.12-0.016,0.213-0.023,0.276-0.023v2.021c-0.979,0.082-1.83,0.141-2.553,0.182c-0.723,0.039-1.357,0.061-1.902,0.061
				c-1.959,0-3.491-0.217-4.598-0.65s-2.104-1.18-2.986-2.238c-0.417-0.498-1.445-2.099-3.081-4.804
				c-1.638-2.706-3.074-5.019-4.311-6.946c-0.995,0.033-1.878,0.058-2.648,0.074c-0.77,0.016-1.517,0.021-2.239,0.021v6.404
				c0,2.457,0.241,4.002,0.723,4.635c0.48,0.635,1.428,0.951,2.84,0.951h0.675v2.166c-1.316-0.078-2.632-0.141-3.948-0.18
				c-1.316-0.039-2.664-0.061-4.045-0.061c-0.45,0-1.112,0.012-1.986,0.037c-0.875,0.023-2.557,0.092-5.045,0.203v-2.121H97.766z
				 M108.552,115.557c0.851,0.051,1.573,0.083,2.167,0.107c0.594,0.023,1.091,0.037,1.493,0.037c0.496,0,1.026-0.014,1.59-0.037
				c0.561-0.024,1.146-0.059,1.757-0.107c1.396-0.9,2.419-1.921,3.069-3.068s0.976-2.492,0.976-4.035
				c0-2.006-0.679-3.631-2.034-4.875c-1.357-1.242-3.159-1.865-5.406-1.865c-0.69,0-1.32,0.023-1.889,0.072
				c-0.57,0.047-1.129,0.121-1.674,0.217c-0.018,1.751-0.029,3.581-0.037,5.488C108.557,109.402,108.552,112.09,108.552,115.557z"/>
			<path fill="#FFFFFF" d="M137.504,98.511c1.572,0.095,3.013,0.167,4.32,0.215c1.309,0.05,2.477,0.074,3.504,0.074
				c1.012,0,2.146-0.024,3.406-0.074c1.262-0.048,2.662-0.12,4.201-0.215v2.166h-0.504c-1.107,0-1.898,0.112-2.371,0.337
				c-0.475,0.225-0.816,0.637-1.023,1.227c-0.178,0.5-0.307,1.479-0.387,2.938c-0.08,1.461-0.119,4.085-0.119,7.875v9.896
				c0,2.264,0.043,3.832,0.131,4.705c0.09,0.877,0.246,1.516,0.471,1.918c0.226,0.398,0.603,0.688,1.132,0.863
				c0.528,0.178,1.315,0.266,2.358,0.266h0.603v2.166c-1.767-0.094-3.313-0.166-4.646-0.215c-1.332-0.051-2.465-0.074-3.396-0.074
				c-0.853,0-1.951,0.023-3.3,0.074c-1.348,0.049-2.913,0.121-4.694,0.215v-2.166h0.604c1.074,0,1.877-0.088,2.406-0.266
				c0.528-0.176,0.891-0.465,1.084-0.863c0.239-0.451,0.409-1.187,0.506-2.207c0.096-1.018,0.145-2.865,0.145-5.549v-3.637v-10.447
				c0-1.99-0.045-3.384-0.133-4.179c-0.088-0.793-0.244-1.384-0.471-1.771c-0.207-0.387-0.572-0.664-1.095-0.842
				c-0.521-0.177-1.272-0.266-2.252-0.266h-0.479v-2.165H137.504z"/>
			<path fill="#FFFFFF" d="M159.185,98.462c2.729,0.112,5.248,0.198,7.562,0.252c2.311,0.058,4.342,0.087,6.09,0.087
				c2.938,0,5.422-0.029,7.453-0.087c2.028-0.054,3.92-0.14,5.67-0.252c0.03,1.396,0.096,2.772,0.192,4.13
				c0.097,1.355,0.231,2.725,0.408,4.105l-2.166,0.289c-0.226-2.008-0.89-3.361-1.985-4.07c-1.101-0.706-3.304-1.059-6.609-1.059
				c-0.594,0-1.385,0.012-2.373,0.036c-0.986,0.024-2.193,0.06-3.623,0.107c-0.031,2.118-0.061,4.149-0.084,6.092
				s-0.053,3.805-0.084,5.584h0.697c0.932,0,2.092,0.009,3.479,0.024c1.388,0.017,2.313,0.024,2.78,0.024
				c2.216,0,3.668-0.217,4.357-0.649c0.689-0.434,1.059-1.26,1.107-2.48l1.781,0.17c0,0.801-0.023,1.809-0.072,3.021
				c-0.047,1.211-0.072,2.033-0.072,2.468c0,0.434,0.012,0.987,0.037,1.659c0.023,0.677,0.061,1.488,0.107,2.434l-2.021,0.145
				v-0.289c0-1.379-0.398-2.311-1.193-2.791c-0.793-0.483-2.668-0.724-5.621-0.724h-3.588h-1.83v2.769
				c0,1.429,0.008,2.895,0.025,4.395c0.016,1.501,0.039,3.288,0.072,5.357c0.721,0.097,1.625,0.173,2.709,0.229
				c1.082,0.057,2.266,0.084,3.551,0.084c3.836,0,6.393-0.398,7.668-1.203c1.275-0.803,2.307-2.344,3.094-4.623l2.215,0.697
				c-0.528,1.543-0.981,3.012-1.358,4.407s-0.695,2.755-0.951,4.067c-3.789-0.127-6.808-0.215-9.056-0.266
				c-2.245-0.047-4.243-0.068-5.993-0.068c-1.976,0-5.129,0.068-9.463,0.215c-1.492,0.049-2.623,0.088-3.396,0.119v-2.119
				c0.096,0.018,0.205,0.029,0.326,0.037c0.119,0.01,0.301,0.014,0.541,0.014c1.348,0,2.264-0.414,2.746-1.24
				c0.48-0.826,0.721-2.998,0.721-6.513v-2.409v-2.214l0.049-5.369c0-0.242,0.008-0.604,0.023-1.084
				c0.049-1.976,0.072-3.323,0.072-4.046s-0.008-1.477-0.023-2.264c-0.018-0.784-0.025-1.219-0.025-1.301
				c0-1.396-0.252-2.367-0.758-2.912c-0.506-0.547-1.385-0.817-2.637-0.817h-0.553L159.185,98.462L159.185,98.462z"/>
			<path fill="#FFFFFF" d="M218.205,99.546v0.53c0,1.172,0.068,2.371,0.205,3.598c0.137,1.229,0.34,2.493,0.613,3.792l-2.504,0.411
				c-0.273-2.088-1.047-3.661-2.322-4.719c-1.277-1.061-3.031-1.59-5.262-1.59c-2.07,0-3.693,0.407-4.863,1.229
				c-1.172,0.82-1.758,1.949-1.758,3.393c0,0.965,0.24,1.797,0.723,2.495c0.48,0.698,1.228,1.312,2.238,1.843
				c0.787,0.416,2.146,0.945,4.082,1.588c1.934,0.644,3.365,1.146,4.297,1.517c2.104,0.866,3.68,1.999,4.732,3.396
				c1.051,1.397,1.576,3.059,1.576,4.983c0,3.5-1.34,6.295-4.021,8.38c-2.68,2.086-6.316,3.131-10.906,3.131
				c-1.51,0-3.033-0.148-4.576-0.445c-1.539-0.297-3.041-0.729-4.502-1.289c0-0.178,0.01-0.412,0.025-0.709
				c0.016-0.299,0.023-0.518,0.023-0.662c0-1.236-0.076-2.496-0.229-3.781c-0.151-1.284-0.389-2.607-0.711-3.973l2.625-0.65
				c0.608,2.953,1.593,5.018,2.949,6.188c1.356,1.172,3.375,1.76,6.055,1.76c2.168,0,3.88-0.484,5.13-1.445
				c1.254-0.963,1.879-2.255,1.879-3.876c0-2.312-2.207-4.244-6.621-5.802c-0.98-0.34-1.728-0.604-2.24-0.795
				c-3.049-1.141-5.236-2.465-6.562-3.975s-1.985-3.396-1.985-5.656c0-3.114,1.203-5.627,3.61-7.537
				c2.408-1.908,5.595-2.864,9.56-2.864c1.381,0,2.781,0.123,4.201,0.373C215.088,98.627,216.601,99.015,218.205,99.546z"/>
		</g>
		<g>
			<path fill="#FFFFFF" d="M167.047,16.298c-0.11-0.395-0.233-0.791-0.608-1.033c-0.09,0.015-0.168,0.027-0.258,0.04
				c-0.152,0.38-0.158,0.768-0.062,1.168c0.164,0.711,0.271,1.434,0.271,2.163c0.008,1.518-0.416,2.955-0.912,4.376
				c-0.408,1.164-1.092,2.123-1.982,2.966c-0.496,0.473-0.965,0.971-1.438,1.466c-0.004-0.828-0.218-1.482-0.336-1.716
				c-0.272-0.531-0.5-0.374-0.5-0.374c-0.138,0.062-0.106,0.389-0.106,0.389s0.143,0.219,0.133,1.425
				c-0.006,0.574-0.236,1.086-0.49,1.499c-0.18,0.157-0.348,0.326-0.535,0.471c-0.119,0.096-0.195,0.129-0.287-0.041
				c-0.596-1.103-1.205-2.201-1.689-3.362c-0.192-0.471-0.328-0.954-0.408-1.456c-0.121-0.799-0.094-1.601-0.059-2.401
				c0.01-0.329-0.006-0.657-0.135-0.965c-0.074-0.171-0.203-0.304-0.412-0.278c-0.211,0.021-0.26,0.189-0.297,0.361
				c-0.008,0.051-0.02,0.101-0.023,0.154c-0.094,1.021-0.24,2.037-0.18,3.061c0.043,0.756,0.123,1.506,0.25,2.247
				c-0.953-0.265-1.439-0.669-1.586-0.943c-0.158-0.287-0.174-0.795-0.617-0.692c-0.441,0.104-0.117,1.024-0.117,1.024
				c0.695,1.508,2.15,1.686,2.666,2.088c0.008,0.015,0.008,0.031,0.012,0.044c0.078,0.223,0.195,0.421,0.312,0.623
				c-0.021,0.182-0.09,0.364-0.103,0.566c-0.021,0.421,0.435,0.512,0.435,0.512c0.004,0.002,0.006,0,0.011,0
				c-0.095,0.153-0.099,0.335-0.029,0.529c0.084,0.25,0.266,0.458,0.399,0.686c-0.071,0.233-0.088,0.467-0.038,0.708
				c-0.22,0.283-0.56,0.618-0.64,1.111c-0.115,0.745-0.595,2.53-0.599,3.86c0,0.264-0.028,0.491-0.069,0.701
				c-0.39,0.331-0.543,0.735-0.554,1.184c-0.065,0.085-0.125,0.186-0.174,0.318c-0.215,0.547-0.268,0.51-0.838,1.063
				c-0.541,0.524-2.361,1.623-3.688,2.247c-0.009,0.004-0.017,0-0.025,0.004c-0.245,0.107-0.502,0.223-0.747,0.335
				c-0.013-0.149-0.011-0.331,0.041-0.611c0.233-0.985,0.313-1.751,0.241-2.408c-0.019-0.163-0.09-0.715-0.151-0.938
				c-0.299-1.103-0.623-1.688-1.328-2.536c-0.545-0.648-0.556-1.398-0.578-1.844c-0.01-0.176-0.023-0.314-0.205-0.342
				c-0.191-0.024-0.195,0.129-0.24,0.294c-0.088,0.317-0.117,0.64-0.104,0.973c0.043,1.051,0.442,1.943,0.924,2.809
				c0.365,0.661,0.465,1.386,0.369,2.169c-0.074,0.573-0.375,2.344-0.931,2.883c-0.207,0.204-0.348,0.473-0.356,0.956
				c-0.002,0.091,0.01,0.178,0.027,0.262c-0.08,0.118-0.173,0.233-0.203,0.345c-0.193,0.694-0.625,1.648-0.052,2.276
				c0.563,0.628,1.236,0.958,1.998,0.622c0.761-0.335,1.004-1.632,1.035-1.727c0.017-0.057,0.039-0.261,0.076-0.474
				c0.129-0.334,0.543-1.003,1.944-1.743c1.996-1.053,3.047-2.275,3.441-2.713c0.395-0.436,0.629-0.513,0.869-0.645
				c0.076-0.046,0.17-0.145,0.26-0.261c0.02-0.002,0.062-0.002,0.062-0.002s1.434,0.267,3.504-1.11
				c1.83-1.217,2.17-3.836,1.736-4.74c-0.347-0.719-0.472-1.16-0.402-1.652c0.084-0.619-0.023-0.723-0.123-0.732
				c-0.15-0.018-0.277,0.272-0.34,0.625c-0.064,0.385-0.127,1.148,0.055,1.693c0.484,1.393-0.271,2.518-0.965,3.214
				c-0.609,0.615-1.814,0.921-2.697,0.995c0.197-0.784,0.377-1.569,0.426-2.385c0.07-1.095,0.143-2.191,0.494-3.244
				c0.016-0.053,0.057-0.09,0.078-0.137c0.541-0.641,1.256-1.425,1.738-1.739c0,0,0.217-0.241,0.219-0.475
				c0.072-0.074,0.148-0.139,0.217-0.215c0.645-0.713,1.254-1.458,1.936-2.132c0.597-0.588,1.179-1.179,1.604-1.903
				c1.011-1.71,1.703-3.538,1.938-5.515C167.715,18.943,167.42,17.609,167.047,16.298z"/>
			<path fill="#FFFFFF" d="M142.908,44.094c0.016-0.083,0.029-0.172,0.027-0.265c-0.014-0.483-0.152-0.752-0.357-0.956
				c-0.555-0.539-0.861-2.31-0.93-2.883c-0.1-0.783,0.002-1.508,0.369-2.169c0.477-0.865,0.873-1.758,0.92-2.809
				c0.016-0.333-0.016-0.655-0.104-0.973c-0.047-0.165-0.049-0.318-0.236-0.294c-0.186,0.027-0.193,0.166-0.203,0.342
				c-0.029,0.445-0.039,1.195-0.582,1.844c-0.707,0.849-1.023,1.434-1.328,2.536c-0.059,0.223-0.133,0.774-0.15,0.938
				c-0.074,0.657,0.01,1.423,0.234,2.408c0.053,0.28,0.057,0.462,0.045,0.611c-0.246-0.112-0.502-0.228-0.746-0.335
				c-0.01-0.004-0.016,0-0.023-0.004c-1.327-0.624-3.151-1.723-3.692-2.247c-0.567-0.554-0.619-0.517-0.832-1.063
				c-0.053-0.133-0.108-0.233-0.178-0.32c-0.007-0.446-0.162-0.851-0.552-1.18c-0.043-0.21-0.071-0.439-0.071-0.703
				c0-1.33-0.486-3.115-0.597-3.86c-0.08-0.493-0.424-0.828-0.645-1.111c0.051-0.241,0.033-0.477-0.037-0.712
				c0.137-0.224,0.316-0.432,0.404-0.682c0.066-0.192,0.061-0.376-0.031-0.529c0.004,0,0.006,0.002,0.012,0
				c0,0,0.449-0.091,0.431-0.512c-0.013-0.202-0.078-0.385-0.101-0.566c0.113-0.202,0.234-0.4,0.312-0.623
				c0.006-0.013,0.006-0.029,0.012-0.044c0.513-0.402,1.974-0.58,2.666-2.088c0,0,0.322-0.921-0.116-1.024
				c-0.439-0.103-0.457,0.405-0.613,0.692c-0.156,0.274-0.637,0.679-1.588,0.943c0.123-0.741,0.205-1.491,0.25-2.247
				c0.055-1.023-0.092-2.04-0.181-3.061c-0.008-0.054-0.016-0.104-0.022-0.154c-0.039-0.172-0.09-0.341-0.297-0.361
				c-0.211-0.025-0.344,0.107-0.418,0.278c-0.123,0.308-0.144,0.636-0.125,0.965c0.026,0.801,0.055,1.603-0.066,2.401
				c-0.08,0.502-0.211,0.985-0.408,1.456c-0.48,1.161-1.09,2.26-1.688,3.362c-0.092,0.17-0.166,0.137-0.291,0.041
				c-0.188-0.145-0.354-0.315-0.533-0.471c-0.254-0.417-0.484-0.925-0.486-1.499c-0.01-1.206,0.129-1.425,0.129-1.425
				s0.031-0.326-0.105-0.389c0,0-0.229-0.157-0.498,0.374c-0.118,0.233-0.331,0.886-0.338,1.716
				c-0.477-0.495-0.944-0.995-1.442-1.466c-0.888-0.843-1.569-1.802-1.979-2.966c-0.494-1.421-0.917-2.858-0.913-4.376
				c0.002-0.729,0.102-1.452,0.274-2.163c0.096-0.4,0.086-0.788-0.064-1.168c-0.084-0.013-0.17-0.025-0.25-0.04
				c-0.38,0.242-0.51,0.639-0.615,1.033c-0.374,1.312-0.667,2.646-0.506,4.021c0.244,1.977,0.934,3.805,1.945,5.515
				c0.428,0.725,1.006,1.315,1.604,1.903c0.676,0.674,1.289,1.419,1.937,2.132c0.065,0.074,0.143,0.141,0.213,0.21
				c0.002,0.236,0.219,0.479,0.219,0.479c0.486,0.318,1.207,1.109,1.754,1.751c0.016,0.046,0.053,0.079,0.068,0.125
				c0.35,1.053,0.418,2.149,0.49,3.244c0.049,0.815,0.229,1.603,0.424,2.385c-0.884-0.074-2.09-0.38-2.697-0.995
				c-0.691-0.696-1.447-1.821-0.963-3.214c0.188-0.545,0.119-1.309,0.055-1.693c-0.066-0.353-0.191-0.643-0.338-0.625
				c-0.098,0.01-0.205,0.113-0.123,0.732c0.062,0.492-0.057,0.934-0.404,1.652c-0.436,0.904-0.094,3.523,1.732,4.74
				c2.076,1.377,3.508,1.11,3.508,1.11s0.043,0,0.061,0.002c0.092,0.116,0.187,0.215,0.264,0.261
				c0.234,0.132,0.476,0.209,0.867,0.645c0.396,0.438,1.449,1.66,3.438,2.713c1.424,0.752,1.832,1.43,1.951,1.76
				c0.039,0.207,0.062,0.405,0.077,0.457c0.025,0.095,0.271,1.392,1.029,1.728c0.765,0.336,1.433,0.006,2.006-0.622
				c0.564-0.628,0.136-1.582-0.059-2.276C143.078,44.324,142.984,44.209,142.908,44.094z"/>
		</g>
	</g>
</g>
</svg>
