<?xml version="1.0" encoding="utf-8"?>
<!-- Generator: Adobe Illustrator 16.0.0, SVG Export Plug-In . SVG Version: 6.00 Build 0)  -->
<!DOCTYPE svg PUBLIC "-//W3C//DTD SVG 1.1//EN" "http://www.w3.org/Graphics/SVG/1.1/DTD/svg11.dtd">
<svg version="1.1" id="icon" xmlns="http://www.w3.org/2000/svg" xmlns:xlink="http://www.w3.org/1999/xlink" x="0px" y="0px"
	 width="50px" height="50px" viewBox="0 0 50 50" enable-background="new 0 0 50 50" xml:space="preserve">
<path fill="#FFFFFF" d="M25,1.25C11.883,1.25,1.25,11.883,1.25,25c0,13.117,10.633,23.75,23.75,23.75S48.75,38.117,48.75,25
	C48.75,11.883,38.117,1.25,25,1.25z M37.711,27.793L20.343,37.816c-0.499,0.287-1.054,0.432-1.611,0.432
	c-0.556,0-1.112-0.145-1.61-0.433c-0.997-0.575-1.611-1.639-1.611-2.789V25.002V14.975c0-1.151,0.614-2.214,1.611-2.79
	c0.498-0.288,1.055-0.432,1.61-0.432c0.557,0,1.113,0.145,1.611,0.432l17.369,10.028c0.996,0.576,1.61,1.639,1.61,2.79
	C39.322,26.153,38.708,27.217,37.711,27.793z"/>
</svg>
