<?xml version="1.0" encoding="utf-8"?>
<!-- Generator: Adobe Illustrator 16.0.0, SVG Export Plug-In . SVG Version: 6.00 Build 0)  -->
<!DOCTYPE svg PUBLIC "-//W3C//DTD SVG 1.1//EN" "http://www.w3.org/Graphics/SVG/1.1/DTD/svg11.dtd">
<svg version="1.1" id="design" xmlns="http://www.w3.org/2000/svg" xmlns:xlink="http://www.w3.org/1999/xlink" x="0px" y="0px"
	 width="48.809px" height="73.434px" viewBox="0 0 48.809 73.434" enable-background="new 0 0 48.809 73.434" xml:space="preserve">
<path fill="#fff" d="M24.404,0C10.948,0,0,10.948,0,24.404c0,3.371,0.678,6.641,2.017,9.718c0.022,0.052,0.047,0.103,0.074,0.152
	l20.554,38.108c0.349,0.647,1.025,1.051,1.76,1.051s1.411-0.403,1.761-1.051l20.554-38.108c0.026-0.049,0.051-0.1,0.073-0.152
	c1.338-3.077,2.017-6.347,2.017-9.718C48.809,10.948,37.861,0,24.404,0z M24.404,15.739c5.216,0,9.459,4.243,9.459,9.458
	s-4.243,9.458-9.459,9.458s-9.459-4.243-9.459-9.458S19.188,15.739,24.404,15.739z"/>
</svg>
